<?xml version="1.0" encoding="utf-8"?>
<!-- Generator: Adobe Illustrator 25.4.1, SVG Export Plug-In . SVG Version: 6.00 Build 0)  -->
<svg version="1.1" id="Layer_1" xmlns="http://www.w3.org/2000/svg" xmlns:xlink="http://www.w3.org/1999/xlink" x="0px" y="0px"
	 viewBox="0 0 439.5 307.8" style="enable-background:new 0 0 439.5 307.8;" xml:space="preserve">
<style type="text/css">
	.st0{fill:#E73D1A;}
	.st1{fill:#DCD6CA;}
</style>
<path class="st0" d="M72.1,219.5c-14.3,3.9-30.1-2.9-38.5-14.7c-9.8-13.7-7.1-32.3,2.1-45.6c2.4-3.5,5.3-6.7,8.6-9.5
	c3.3-2.8,7.2-5.4,11.6-5.9c4.2-0.5,8.2,1.5,10.4,5.1c2.4,3.9,0.8,7.6-1.9,10.8c-5,5.8-13.5,13.3-21.2,7.3
	c-6.3-4.9-7.8-14.5-8.7-21.9c-2.2-18,1.8-37.6,13.8-51.7c10.5-12.2,28.2-21,44.5-16.9c4.2,1.1,8.1,3.2,10.5,6.9
	c1.1,1.7,1.8,3.6,2,5.6c0.2,1.7,0,4.7-1.4,5.9c-1,0.9-2.3-0.4-3.1-1.2c-1.5-1.5-2.6-3.4-3.2-5.5c-1.3-3.9-1.9-8.1-2-12.2
	c-0.2-16.7,8.6-33,23.3-41.2c14.4-8,33.3-8.8,47.8-0.5c6.9,4,13,10.1,15.1,18c1.7,7-0.1,14.3-4.8,19.7c-2,2.3-4.8,3.9-7.9,4.4
	l2.4,1.2c-4.9-14.8,2.2-30.7,13.8-40.3c12.6-10.5,29.4-15.3,45.4-17.2c16.8-2,34.4-0.8,50.4,4.7c12.8,4.4,25.8,12.4,31,25.4
	c4.8,11.8,1.5,25.7-7,34.9c-2.1,2.3-4.5,4.2-7.3,5.8c-2.4,1.3-6.1,3.3-8.9,2.2c-3.5-1.4-2.9-6.6-2.6-9.5c0.3-3.5,1.1-6.9,2.2-10.2
	c2.4-6.8,6.7-12.2,13.9-14c7.2-1.8,15.1-1.3,22.2-0.3c13.9,1.9,27.7,7.6,37.8,17.6c9.4,9.1,14.7,21.6,14.7,34.7
	c0,12.2-4.5,24.8-14.4,32.4c-2.7,2.1-6.5,4.4-9.3,1.2c-2-2.3-2.6-5.7-3-8.7c-0.7-5-0.8-13.3,4.1-16.4c3.2-2,7.6-0.4,10.9,0.6
	c3.3,1.1,6.6,2.4,9.7,4c6.4,3.2,12.2,7.5,17.3,12.5c9.8,9.7,16.9,22.3,19,36c1.9,12.4-0.3,26.5-8.3,36.5
	c-10.1,12.6-26.8,13.5-41.7,14c-18.5,0.6-37-0.5-55.2-3.4c-8.7-1.3-17.4-3.1-25.9-5.4c-7.3-2-14.8-4.8-20.2-10.4
	c-11.6-12.2-9.1-30.6-4.2-45c1.4-4.1,2.9-8.1,4.5-12.1c1.2-3,2.8-7,6.1-8.2c3.5-1.3,5.7,1.9,5.8,5.1c0.1,3.4-1.3,6.8-3,9.7
	c-7.7,13.9-24.2,18.5-39,19.2c-8,0.4-16,0.1-23.9-1c-6.6-1-13.7-3-18.3-8.2c-10.8-12-2.4-29.7,5.9-40.5c9.9-13,22.3-23.7,34.4-34.6
	c3-2.7,6-5.5,9-8.2c1.4-1.3,2.7-2.6,4.1-3.9c1.4-1.4,3.2-2.9,4-4.8c1.4-3.7-2.4-5.6-5.2-6.9c-2.7-1.2-5.5-2-8.5-2.3
	c-11.8-1.4-24.6,3.7-32,13c-10.6,13.5-5,30.4-2.2,45.6c1.3,7.1,2,14.9-0.4,21.9c-2.1,6.5-7.2,11.5-13.8,13.5
	c-14.2,4.4-28.9-1.4-43.1-2.3c-7.7-0.5-15.8,0.2-22.7,4c-5.8,3.3-10.5,8.3-13.4,14.4c-2.9,6.1-4.6,12.9-5.6,19.5
	c-0.7,3.5-1.1,7.1-1.3,10.7c-0.1,3.9,2,6.3,5.4,8c12.2,5.7,27.7,4,39.3-2.4c6-3.2,11-7.8,14.8-13.5c3.4-5.4,5.2-14-1.4-17.8
	c-5.9-3.5-13.5,0.1-18.2,4.1c-5.7,4.8-9.9,11.9-13.3,18.6c-3.6,7.1-6.1,14.7-7.5,22.6c-1.2,7-1.9,14.6,0.7,21.4
	c2.4,6.5,8.2,11.2,15.1,12.2c7.4,1.2,14.9-1,21.3-4.8c7-4.1,12.9-9.8,19.4-14.6c6.5-4.9,13.5-9,21.1-12.2
	c13.2-5.3,28.4-5.7,40.8,2.1c5.6,3.4,10,8.4,12.6,14.4c1.4,3.4,2.3,7.6,0.8,11.2c-1.4,3.2-4.7,4.9-7.8,6.1c-8.3,3.3-17,5.9-25.4,8.8
	c-7.3,2.5-17.2,7.4-24.5,2.4c-2.7-1.9-4.9-5-4.5-8.4c0.5-3,2.6-5.4,5.6-6.1c7.2-2.3,14.9,3.8,20.6,7.4c12.3,7.8,24.8,16.4,31.8,29.7
	c1.1,2.1,6,0.1,4.8-2.3c-7.6-14.3-21.6-23.5-34.9-31.9c-6.8-4.3-14.4-8.8-22.8-6.6c-6.5,1.7-12.6,8-9.7,15.1
	c3.2,7.8,12.2,9.9,19.8,8.7c4.7-0.8,9.2-2.4,13.7-4l14-4.8c4.4-1.5,8.8-2.9,13.1-4.6c3.4-1.3,6.7-3,9.2-5.7c5.5-6,3-14.8-0.8-21.1
	c-7.4-12.1-22.2-18.1-36-18.2c-16.9-0.1-32.7,8.5-45.8,18.4c-6.7,5.1-12.9,11.3-20.6,15c-6.4,3-14.7,3.8-20.6-0.8
	c-5.9-4.7-6.9-13.3-6.3-20.4c0.7-8.4,2.8-16.6,6.2-24.2c1.7-4,3.8-7.8,6.1-11.4c2.1-3.3,4.4-6.7,7.4-9.3c2.3-2,5.5-4.2,8.7-4.2
	c3.2,0.1,5.4,3.2,5.5,6.3c0.1,7.2-6.2,13.5-11.6,17.4c-5.6,4-12.2,6.4-19,7c-3.3,0.3-6.7,0.2-10-0.4c-3.2-0.5-7.8-1.5-10.1-3.8
	c-1.5-1.5-1.3-3.5-1.1-5.4c0.2-1.9,0.4-3.8,0.7-5.7c0.5-3.6,1.1-7.2,2-10.7c1.7-6.7,4.4-13.5,9.2-18.5c5.5-5.7,13.1-7.6,20.8-7.6
	c8.3,0.1,16.4,2.1,24.7,3.2c7.3,1,14.8,1.3,22-0.4c7.2-1.7,13.6-5.5,17.5-11.7c4.1-6.5,4.8-14.4,4.2-21.8
	c-1.2-15.7-10.8-34.5-0.5-49c6.8-9.6,20.2-14.6,31.5-10.8c1.5,0.5,2.9,1.1,4.2,1.9c0.8,0.5,1.6,1,1.3,2.1s-1.5,2-2.3,2.7
	c-3.1,3-6.2,6-9.4,8.9c-6.4,5.8-12.8,11.5-19.1,17.3c-6.4,5.9-12.4,12.2-17.9,18.9c-5,6.3-9.6,13.1-12,20.9
	c-2.2,7.1-2.8,14.9,0.7,21.7c3.3,6.5,9.7,10.4,16.5,12.4c7.4,2.2,15.3,2.5,23,2.7c9.2,0.2,18.6-0.2,27.6-2.7
	c7.5-2.1,14.5-5.9,20.2-11.2c5-4.7,9.7-11.6,9.9-18.7c0.1-3.5-1.1-6.9-4.3-8.5c-3.4-1.7-7.7-0.9-10.9,1.2c-3.1,2-5.1,5.4-6.6,8.8
	c-1.8,4.3-3.4,8.6-4.9,13c-5.1,15.1-7.8,33.9,3.6,47c5.2,6,12.6,9.5,20.1,11.8c8.7,2.5,17.6,4.5,26.5,5.9c19.1,3.2,38.6,4.6,58,4
	c16.3-0.5,34.4-1.5,46.4-14.1c9.4-9.9,12.7-24.2,11.6-37.5c-1.1-14.4-7.9-28.1-17.6-38.7c-5.1-5.5-10.9-10.3-17.4-14
	c-6.4-3.7-14.1-7.3-21.6-7.9c-7.7-0.6-13.5,4-15.2,11.4c-1.4,6-0.9,14.1,2.4,19.4c4.7,7.7,14.2,3.7,19.6-0.8
	c5-4.2,8.9-9.6,11.4-15.6c5-12.4,4.9-26.2-0.2-38.5c-5.6-13.6-17.3-23.7-30.5-29.7c-6.9-3.1-14.1-5.1-21.6-6.1
	c-7.7-1.1-15.8-1.3-23.4,0.2c-7.6,1.4-14.1,6.2-17.6,13.1c-1.6,3.2-2.8,6.7-3.5,10.2c-0.9,3.5-1.2,7.2-1,10.8
	c0.4,3.9,2.7,6.9,6.7,7.6c3.7,0.6,7.5-0.6,10.8-2.2c6.1-2.9,11.2-7.4,14.8-13c7.6-11.6,8.7-26.4,1.5-38.4
	c-7.5-12.6-21.8-19.9-35.5-23.7c-17.8-4.8-36.4-5.7-54.5-2.5c-16.5,2.8-33.6,8.6-45.9,20.4c-10.9,10.4-17.4,26.6-12.5,41.4
	c0.4,0.9,1.4,1.4,2.4,1.2c8.5-1.2,15.2-7.4,17.8-15.6c2.8-8.6,0.7-17.4-5-24.4c-12.5-15.3-35.6-18.6-53.7-13.2
	c-19.2,5.6-33.7,21.3-37,41.1c-0.8,4.8-0.8,9.7-0.2,14.5c0.6,4.5,1.7,9.5,4.9,13c3.1,3.5,8,4.9,11.8,1.6c3.6-3.1,3.8-8.8,2.3-13
	c-3.8-10-15.2-12.7-24.8-12.6c-9.9,0.1-19.5,3.4-27.8,8.6c-18,11.3-27.7,31.5-28.5,52.3c-0.4,9.8,0.4,20.8,4.7,29.7
	c1.9,3.9,4.6,7.4,8.6,9.3c4.6,2.2,9.8,1.6,14.3-0.4c4.8-2.2,8.9-6,12.4-10c3.1-3.6,5.3-8.1,3.3-12.8c-1.9-4.2-5.8-7.2-10.3-8.2
	c-5.1-1.1-10.6,0.5-15.1,3c-16.7,9.5-27.6,30.8-23.9,49.9c3.4,17.5,20,30.2,37.4,31.3c4.3,0.3,8.7-0.2,12.8-1.3
	c1-0.3,2.5-1.2,2.1-2.5C74.8,219.3,73.1,219.2,72.1,219.5L72.1,219.5z"/>
<path class="st1" d="M162.5,175.4c-4-0.9-7.9-2.1-11.7-3.7l8.3,3.5c-4.9-2.1-9.5-4.8-13.7-8l7,5.4c-3.6-2.8-6.9-6-9.9-9.5l5.4,7
	c-1.6-2-2.9-4.3-4-6.7l3.5,8.3c-0.5-1.4-0.9-2.8-1.1-4.3l1.2,9.2c-0.2-1.7-0.1-3.5,0.1-5.2l-1.2,9.2c0.3-1.7,0.8-3.4,1.4-5.1
	l-3.5,8.3c0.7-1.6,1.6-3.1,2.6-4.6l-5.4,7c1.1-1.4,2.3-2.7,3.7-3.8l-7,5.4c1.4-1.1,3-2,4.6-2.7l-8.3,3.5c1.7-0.7,3.5-1.1,5.3-1.4
	l-9.2,1.2c2.2-0.2,4.4-0.2,6.5,0.1l-9.2-1.2c1.8,0.3,3.6,0.8,5.3,1.5l-8.3-3.5c2.1,0.9,4,2,5.8,3.3l-7-5.4c1.4,1.2,2.8,2.5,3.9,3.9
	l-5.4-7c1.1,1.5,2.1,3.2,2.8,4.9l-3.5-8.3c0.7,1.8,1.2,3.6,1.4,5.5l-1.2-9.2c0.1,1.5,0.1,3,0,4.4l1.2-9.2c-0.2,1.5-0.7,2.9-1.2,4.2
	l3.5-8.3l-0.5,1c-5.1,10.2-6.2,20.3-1.7,30.9c4.4,10.3,12,16.4,22.5,20.1c12.9,4.5,27.5-0.7,36.6-10.1c8.2-8.5,10.8-19.1,11.4-30.5
	c0.5-9.7-1.8-20-4.8-29.2c-2.4-7.4-4.9-14.7-7.4-22s-5.5-14.9-7.4-22.5l1.2,9.2c-0.2-0.8-0.2-1.6-0.1-2.4l-1.3,9.2l0.4-1.1l-3.5,8.3
	l0.6-0.8l-5.4,7l0.7-0.7l-7,5.4l0.9-0.5l-8.3,3.5c1-0.4,2-0.7,3.1-0.9l-9.2,1.2c3.9-0.5,7.8-0.4,11.7,0.1l-9.2-1.2
	c3.5,0.5,6.9,1.5,10.2,2.8l-8.3-3.5c2.5,1.1,4.8,2.5,7,4l-7-5.4c2.1,1.6,4,3.5,5.7,5.6l-5.4-7c1.3,1.7,2.4,3.6,3.2,5.6l-3.5-8.3
	c1,2.3,1.7,4.7,2.1,7.2l-1.2-9.2c0.3,2.5,0.3,4.9,0,7.4l1.2-9.2c-0.3,2.1-0.9,4.1-1.7,6l3.5-8.3c-0.7,1.6-1.7,3.1-2.7,4.5l63.4,26.7
	c2.3-10,4-20.2,5-30.4c0.9-7.3,0.9-14.6,1.7-22l-1.2,9.2c0.4-3.5,1.3-6.9,2.6-10.2l-3.5,8.3c0.8-1.7,1.7-3.3,2.8-4.8l-5.4,7
	c1.1-1.4,2.4-2.8,3.9-3.9l-7,5.4c1.2-0.9,2.4-1.6,3.7-2.2l-8.3,3.5c1.3-0.5,2.7-0.9,4.1-1.1l-9.2,1.2c1.1-0.1,2.2,0,3.3,0.1
	l-9.2-1.2c1.1,0.2,2.1,0.5,3.2,0.8l-8.3-3.5c1.4,0.6,2.6,1.3,3.9,2.1l-7-5.4c1.5,1.1,2.8,2.4,4,3.9l-5.4-7c0.9,1.3,1.8,2.8,2.5,4.3
	l-3.5-8.3c1,2.4,1.6,4.8,2,7.4l-1.2-9.2c0.5,3.8,0.5,7.6,0,11.3l1.2-9.2c-0.7,4.9-2,9.7-3.9,14.3l3.5-8.3c-2.7,6.2-6.1,12-10.2,17.3
	l5.4-7c-2.1,2.7-4.2,5.2-6.6,7.7c-11.7,12.7-13.3,31.7-2.6,45.5c10.3,13.4,29.8,17.9,44.7,8.9c12.3-7.4,19.7-18,28.3-29.2l-5.4,7
	c2.9-3.8,6.2-7.3,9.9-10.3l-7,5.4c3.3-2.4,6.9-4.5,10.7-6.1l-8.3,3.5c5.1-2.1,10.5-3.5,15.9-4.3l-9.2,1.2c10.4-1.4,20.9-1,31.3,0.4
	l-9.2-1.2c3.2,0.4,6.3,1.2,9.3,2.4l-8.3-3.5c1.2,0.6,2.4,1.3,3.5,2.1l-7-5.4c0.8,0.6,1.5,1.3,2.1,2.1l-5.4-7
	c0.6,0.8,1.1,1.7,1.6,2.6l-3.5-8.3c0.4,1.1,0.7,2.3,0.9,3.5l-1.2-9.2c0.1,1.2,0,2.5-0.1,3.7l1.2-9.2c-0.3,1.6-0.8,3.3-1.4,4.8
	l3.5-8.3c-0.9,1.9-2,3.7-3.2,5.4l5.4-7c-1.5,1.9-3.3,3.6-5.2,5.2l7-5.4c-3.2,2.4-6.6,4.4-10.3,6l8.3-3.5c-10.5,4.4-21.9,6.5-33,8.5
	c-12.1,2.1-24.3,3.7-36.4,5.6c-12.1,1.9-24.1,4.2-35.8,7.6c-8,2.3-15.9,5.2-23.4,8.8c-12.1,5.9-19.8,16.3-24.3,28.8
	c-2.8,7.8-0.9,19.9,3.5,26.7c5.1,7.8,11.8,12.9,20.7,15.9c7.8,2.7,16.1,2.1,24.2,1.6L188,221l36.1-2.2l36.1-2.3l18.4-1.1
	c5.6-0.3,11.2-1.1,16.8-0.6l-9.2-1.2c1.6,0.2,3.3,0.7,4.8,1.3l-20.7-50.9c-0.5,0.9-1.1,1.8-1.7,2.7l5.4-7c-0.9,1.1-2,2.1-3.1,2.9
	l7-5.4c-2.1,1.5-4.3,2.7-6.7,3.8l8.3-3.5c-20.5,8.6-42.8,12.7-64.5,16.9c-22.1,4.3-44.4,8.6-65.5,16.8c-8.7,3.4-15.9,7.6-20.7,15.9
	c-4.3,7.4-6.2,18.4-3.5,26.7s7.9,16.5,15.9,20.7c8.6,4.6,17.1,5.3,26.7,3.5c12.9-2.4,25.8-4.5,38.8-6.2l-9.2,1.2
	c22-2.9,44-4.9,66.2-6L230.2,203c-0.3,1.5-0.8,2.9-1.3,4.4l3.5-8.3c-1.1,2.4-2.4,4.7-3.9,6.8l5.4-7c-3.1,3.9-6.7,7.5-10.7,10.5
	l7-5.4c-2.5,1.9-5.1,3.7-7.7,5.5c-7.5,5.1-13.5,11.7-15.9,20.7c-2.3,8.3-1.2,19.3,3.5,26.7c4.7,7.4,11.9,13.9,20.7,15.9
	c8.8,2,19,1.7,26.7-3.5c17.5-11.9,34.7-26.2,39.8-47.9c2.6-11,0.7-21.3-6.2-30.2c-6.4-8.3-16.4-14.2-27.2-13.7
	c-38.3,1.8-76.5,6.3-114.2,13.3l18.4,66.9c24.8-9.6,51.2-13.9,77.1-19.1c12.8-2.6,25.5-5.4,37.9-9.3c18.1-5.6,37.6-12.8,47.1-30.6
	c5.3-10,6.2-20.5,1.7-30.8c-1.4-4.3-3.9-8.1-7.2-11.2c-4.2-4.2-9.5-7.3-15.3-8.9c-12.4-5.2-28.5-2.1-41.5-1.3l-37.6,2.3l-36.9,2.3
	l-18.4,1.1c-5.9,0.4-12.1,1.4-17.9,0.6l9.2,1.2c-0.8-0.1-1.7-0.4-2.4-0.7l24.2,42.6l0.4-1l-3.5,8.3c0.3-0.6,0.6-1.3,1-1.8l-5.4,7
	c0.7-0.8,1.4-1.6,2.2-2.3l-7,5.4c1.8-1.3,3.7-2.5,5.8-3.3l-8.3,3.5c18.5-7.6,38.6-10.7,58.3-13.7c18.9-2.8,38.8-4.7,56.8-11.2
	c12.2-4.4,24.7-10.2,33.5-20c12.8-14.2,19.3-32.6,14.5-51.6c-4.5-17.7-21.5-31-39.1-34.2c-11.9-2.1-24.7-3.4-36.8-2.6
	c-15.8,1.1-30.9,4.5-44.8,12.4c-6.7,3.8-12.8,8.5-18,14.2c-5,5.5-9.2,11.7-13.8,17.6l5.4-7c-2.5,3.4-5.4,6.5-8.7,9.2l7-5.4
	c-0.9,0.7-1.9,1.3-2.9,1.9l42,54.4c8.8-9.5,17.1-20.1,22.2-32c3.1-7.2,6.2-14.2,7.3-22c1.7-11.3,2.1-20.3-0.1-31.6
	c-2-10.1-7.4-19.4-14.3-27c-7.6-8.5-18.7-13.6-29.8-15.1s-22.8,0.4-32.4,6.7c-8,5.3-15.5,12.6-19.8,21.3
	c-5.3,10.8-7.2,21.1-8.1,33.1c-0.5,7-0.8,13.9-1.8,20.9l1.2-9.2c-0.8,5.9-1.9,11.7-3.3,17.5c-4,16.9,3.9,34.1,20.1,40.9
	c6.9,2.9,15.3,4.1,22.6,1.7l8.3-3.5c5.1-3,9.4-7.3,12.4-12.4c5.1-6.8,7.4-15.2,8.5-23.4c1.1-8.6,1-17-1.6-25.4
	c-5-16.2-16.5-31-31.9-38.4c-10.1-4.8-18.3-6.8-29.3-8.1c-2.6-0.3-5.1-0.4-7.7-0.3c-5,0.2-10.5,0.6-15.2,2.2
	c-9.5,3.3-17.8,8.9-23.1,17.8c-5.5,9.2-6.5,20.3-4.1,30.6c1.4,5.9,3.8,11.7,5.7,17.5c4.4,13.1,10.2,26.4,12.3,40.1l-1.2-9.2
	c0.4,3.2,0.4,6.5,0,9.7l1.2-9.2c-0.1,0.8-0.3,1.6-0.5,2.3l3.5-8.3l-0.3,1l5.4-7l-0.6,0.8l7-5.4l-0.7,0.5l8.3-3.5l-0.8,0.2h18.4
	l-0.8-0.3l20.7,50.9c6.1-12.2,7.7-24.1,5.1-37.5c-1.9-9.7-7.7-19.2-14.5-26.3c-14.2-14.9-36.2-20.2-55.9-15.5
	c-9.7,2.5-18.4,7.6-25.3,14.8c-6.6,7.1-12.1,16-14.2,25.5c-3,13.4-1.2,25.5,4.6,37.9c3.4,7.2,9,13.7,14.8,19
	c12.6,11.6,28.1,20.5,44.9,24.2c9.1,2,18.5,1.3,26.7-3.5c7.2-4.2,14-12.4,15.9-20.7c2-8.9,1.6-18.8-3.5-26.7
	C178.5,184,171.4,177.3,162.5,175.4L162.5,175.4z"/>
<g>
	<path class="st0" d="M150.5,147.6v-2h6.1v2.6h-0.6L150.5,147.6z M156.5,167.8v2.6h-6.1v-2l5.5-0.6H156.5z M153.4,157.4
		c0-3.9,0-7.9-0.1-11.9h6.5c-0.1,3.9-0.1,7.9-0.1,11.9v0.9c0,4.1,0,8.1,0.1,12h-6.5c0.1-3.9,0.1-7.8,0.1-11.9V157.4z M156.5,156.4
		h4.1c3.2,0,4.7-1.6,4.7-4.5c0-2.8-1.4-4.1-4.3-4.1h-4.5v-2.2h6.1c6.4,0,8.8,2.5,8.8,5.8c0,2.8-1.7,5.2-7.9,5.9V157
		c6.7,0.4,9.3,2.8,9.3,6.4c0,3.2-2.3,7-11.7,7h-4.7v-2.2h4.4c3.5,0,5.5-1.7,5.5-4.9c0-3.4-1.8-4.9-5.6-4.9h-4.3V156.4z"/>
	<path class="st0" d="M174.5,147.6v-2h6.1v2.6H180L174.5,147.6z M181.2,167.8l5.5,0.6v2h-12.2v-2l5.5-0.6H181.2z M177.4,157.3
		c0-3.9,0-7.8-0.1-11.7h6.5c-0.1,3.9-0.1,7.7-0.1,11.8v1.2c0,4,0,8,0.1,11.9h-6.5c0.1-3.8,0.1-7.8,0.1-11.7V157.3z M180.7,156.9h4.5
		c3.8,0,4.9-2.2,4.9-4.6c0-3-1.6-4.5-4.7-4.5h-4.7v-2.2h6.2c5.9,0,9.2,2.3,9.2,6.3c0,2.9-2.2,5.9-8.9,6.2l0-0.4
		c6,0.2,7.5,2.1,8.1,6.2l1,5.8l-3.1-1.9l5.7,0.6v2c-1.8,0.4-2.4,0.5-4.1,0.5c-3.2,0-5.1-0.9-5.5-3.9l-0.7-4.4
		c-0.4-2.5-1.3-3.7-3.6-3.7h-4.4V156.9z"/>
	<path class="st0" d="M199.8,168.4l3.9-0.6h0.7l3.6,0.6v2h-8.2V168.4z M210.6,145.5h3.9l8.5,24.9h-6.5l-6.5-20.3l1.4-1.9l-7.2,22.2
		H202L210.6,145.5z M206.5,161h10.2l0.9,2.2h-11.7L206.5,161z M212.9,168.5l4.3-0.6h2.5l4.9,0.6v1.9h-11.7V168.5z"/>
	<path class="st0" d="M226.1,147.6v-2h12.2v2l-5.6,0.6h-1.1L226.1,147.6z M232.7,167.8l5.6,0.6v2h-12.2v-2l5.5-0.6H232.7z
		 M229,157.3c0-3.9,0-7.8-0.1-11.7h6.6c-0.1,3.8-0.1,7.8-0.1,11.7v1.4c0,3.9,0,7.9,0.1,11.7h-6.6c0.1-3.8,0.1-7.8,0.1-11.7V157.3z"
		/>
	<path class="st0" d="M240.6,168.4l4-0.6h1.1l4.9,0.6v2h-10V168.4z M242.6,146.9l2.2,1.1l-4.1-0.3v-2.1h8.5l13.6,18.6v6.3h-3.2
		L242.6,146.9z M243.9,145.6l2.4,2.1v22.8h-2.4V145.6z M256,145.6h10v2l-3.8,0.6h-1.1l-5.1-0.6V145.6z M260.4,145.6h2.4v24.9
		l-2.4-2.4V145.6z"/>
</g>
</svg>
