<svg id="Layer_1" data-name="Layer 1" xmlns="http://www.w3.org/2000/svg" width="350.31" height="400.08" viewBox="0 0 350.31 400.08"><defs><style>.cls-1{fill:#dbd4c9;}.cls-2,.cls-4{fill:#f93700;}.cls-2{opacity:0.2;}.cls-3{fill:none;stroke:#f93700;stroke-miterlimit:10;stroke-width:0.25px;}.cls-5{fill:#fff;}</style></defs><rect class="cls-1" x="0.04" y="0.08" width="350" height="400"/><path class="cls-2" d="M350.27,221.26A124.27,124.27,0,0,0,187.06,400H350Z" transform="translate(0.04 0.08)"/><path class="cls-3" d="M131.76,0A123.79,123.79,0,0,1,165.6,85.23,124.33,124.33,0,0,1,0,202.43" transform="translate(0.04 0.08)"/><circle class="cls-4" cx="130.42" cy="156" r="45.81"/><path class="cls-5" d="M119.58,161.44l4.34-.56H125l3.68.56v2h-9.09ZM119.9,139h5.32l.06,2.56h-.61L119.9,141Zm3.27,0h2.13l.29,12.91v11.57h-2.42Zm.23,0h6.33l6.71,18.14H135.2L141.53,139H144l-8.6,24.48h-2.87Zm15.78,22.48,4.77-.56h1.71l5.41.56v2H139.18Zm2.79-8.77L142.1,139h6.21c-.11,3.82-.11,7.69-.11,11.55v1.38c0,3.89,0,7.77.11,11.55h-6.46C142,159.63,141.94,155.75,142,152.67Zm3.1-13.71h5.87v2l-5.28.56h-.59Z" transform="translate(0.04 0.08)"/><path class="cls-5" d="M152.35,154.36a9.46,9.46,0,1,1,18.92,0c0,5.81-3.69,9.65-9.46,9.65S152.35,160.09,152.35,154.36Zm12.61.08c0-5.28-1.06-7.63-3.15-7.63s-3.15,2.35-3.15,7.63,1,7.62,3.15,7.62S165,159.76,165,154.44Z" transform="translate(0.04 0.08)"/><path class="cls-5" d="M180.93,157.33c0,2.32.76,3.08,2,3.08,1.47,0,3.27-1.5,4.38-3.07h1.43v2.47h-2.44l1.2-1.07c-1.78,3.32-4.26,5.27-7.32,5.27s-5.33-1.79-5.27-6.71l.14-10,1.19,1.19-3.33-.75v-1.57l7.59-1.08.59.4-.19,5.27Zm5.54,6.52-.31-4.39.14-12.21,1.19,1.22-3.23-.75v-1.44l7.42-1.21.59.4-.11,5.27v12.38l-2.49-2.32,4.44.94v1.73Z" transform="translate(0.04 0.08)"/><path class="cls-5" d="M196.23,162.3l.09-4.58h3l.84,5-2.09-.72v-1.54a8.49,8.49,0,0,0,4.66,1.5c2.15,0,3.33-.69,3.33-2.19,0-1.17-.69-1.94-3.15-2.66l-2-.58c-2.89-.85-4.51-2.76-4.51-5.56,0-3.44,2.75-6.09,7.78-6.09a12.43,12.43,0,0,1,5.9,1.5l-.25,4.08h-3l-1.07-4.59,2.07.89v1.37a6,6,0,0,0-3.8-1.2c-1.66,0-2.78.74-2.78,2.09,0,1,.56,1.74,3.12,2.51l1.82.52c3.54,1.06,4.95,3,4.95,5.76,0,3.94-3.17,6.21-8.43,6.21A12.47,12.47,0,0,1,196.23,162.3Z" transform="translate(0.04 0.08)"/><path class="cls-5" d="M230.42,152.74a8,8,0,0,1-.21,2H215.63v-2h7c1.79,0,2.25-.66,2.25-2.33,0-2.44-1.17-3.65-2.52-3.65-1.56,0-3,1.68-3,7.07,0,4.54,2.25,6.59,5,6.59a6,6,0,0,0,4.52-2l1.28,1.21c-1.53,2.91-4.21,4.35-7.81,4.35-5.43,0-9.29-3.55-9.29-9.56a9.31,9.31,0,0,1,9.6-9.58C227.63,144.87,230.42,148.23,230.42,152.74Z" transform="translate(0.04 0.08)"/><path class="cls-5" d="M159.32,199.72c0,8.59-5.67,12.93-11.82,12.93s-11.83-4.25-11.83-12.93,5.71-12.94,11.83-12.94S159.32,191,159.32,199.72ZM147.5,210.49c3.75,0,5.22-4.59,5.22-10.77s-1.47-10.8-5.22-10.8-5.23,4.64-5.23,10.8S143.75,210.49,147.5,210.49Z" transform="translate(0.04 0.08)"/><path class="cls-5" d="M163.69,196.27l-3.38-.67V194h10.58v1.65l-3.39.67Zm4.07-2.32,4.87,13.25-2.5,4L176,194h2.6L171.68,212h-2.84L161.31,194Zm8.3,2.23L173,195.6V194h7v1.65l-3.07.58Z" transform="translate(0.04 0.08)"/><path class="cls-5" d="M197.57,201.25a8.11,8.11,0,0,1-.21,2H182.78v-2h7c1.79,0,2.25-.67,2.25-2.33,0-2.45-1.17-3.66-2.52-3.66-1.55,0-3,1.69-3,7.07,0,4.55,2.25,6.6,5,6.6a6,6,0,0,0,4.52-2l1.28,1.2c-1.53,2.92-4.21,4.35-7.81,4.35-5.42,0-9.28-3.54-9.28-9.56a9.3,9.3,0,0,1,9.59-9.58C194.79,193.38,197.57,196.74,197.57,201.25Z" transform="translate(0.04 0.08)"/><path class="cls-5" d="M201.73,204.13V202c0-2,0-2.8-.12-4.29l-2.28-.34v-1.46l7.36-2.48.64.4.33,4.58v5.77c0,2.31,0,6.15.12,7.83h-6.17C201.69,210.28,201.73,206.44,201.73,204.13Zm-2.1,6.09,3.56-.74h3.92l3.56.74V212h-11Zm5.28-11h2.8l-.5,1c.65-4.56,3.25-6.84,5.47-6.84a3.09,3.09,0,0,1,3.24,2.75c-.08,1.94-1.16,3-2.65,3a3.52,3.52,0,0,1-2.88-1.73L209.31,196l1.5.54a9.09,9.09,0,0,0-3.17,5.17l-2.73-.26Z" transform="translate(0.04 0.08)"/><path class="cls-5" d="M124.44,238v-2h11.75v2l-5.44.56h-1.09Zm6.31,19.92,5.44.56v2H124.44v-2l5.22-.56Zm-3.5-10.37c0-3.83,0-7.71-.11-11.55h6.48c-.11,3.77-.11,7.64-.11,11.55v1.15c0,4.07,0,7.95.11,11.78h-6.48c.11-3.76.11-7.64.11-11.55Zm3.13,1.44v-2.17h14.2V249Zm8.39-11v-2h11.75v2l-5.35.56h-1Zm6.4,19.92,5.35.56v2H138.77v-2l5.35-.56Zm-3.72-10.37c0-3.83,0-7.71-.11-11.55h6.48c-.11,3.77-.11,7.64-.11,11.55v1.38c0,3.84,0,7.72.11,11.55h-6.48c.11-3.76.11-7.64.11-11.78Z" transform="translate(0.04 0.08)"/><path class="cls-5" d="M169.09,249.77a8,8,0,0,1-.21,2H154.3v-2h7c1.79,0,2.25-.66,2.25-2.33,0-2.44-1.17-3.66-2.52-3.66-1.55,0-3,1.69-3,7.08,0,4.54,2.25,6.59,5,6.59a6,6,0,0,0,4.52-2l1.29,1.21c-1.53,2.91-4.21,4.35-7.82,4.35-5.42,0-9.28-3.55-9.28-9.56a9.31,9.31,0,0,1,9.6-9.58C166.3,241.9,169.09,245.26,169.09,249.77Z" transform="translate(0.04 0.08)"/><path class="cls-5" d="M173.24,252.65v-2.18c0-2.05,0-2.81-.11-4.29l-2.28-.34v-1.47l7.35-2.47.64.4.34,4.57v5.78c0,2.31,0,6.15.11,7.82h-6.16C173.2,258.8,173.24,255,173.24,252.65Zm-2.1,6.09,3.57-.75h3.91l3.57.75v1.73H171.14Zm5.28-11h2.8l-.5,1c.65-4.57,3.25-6.84,5.47-6.84a3.08,3.08,0,0,1,3.24,2.74c-.08,1.94-1.15,3.05-2.64,3.05a3.51,3.51,0,0,1-2.88-1.73l-1.09-1.43,1.5.55a9,9,0,0,0-3.16,5.17l-2.74-.27Z" transform="translate(0.04 0.08)"/><path class="cls-5" d="M205.19,249.77a8.06,8.06,0,0,1-.2,2H190.4v-2h7c1.79,0,2.25-.66,2.25-2.33,0-2.44-1.17-3.66-2.52-3.66-1.55,0-3,1.69-3,7.08,0,4.54,2.25,6.59,5,6.59a6,6,0,0,0,4.52-2l1.29,1.21c-1.53,2.91-4.21,4.35-7.82,4.35-5.42,0-9.28-3.55-9.28-9.56a9.31,9.31,0,0,1,9.59-9.58C202.41,241.9,205.19,245.26,205.19,249.77Z" transform="translate(0.04 0.08)"/><path class="cls-5" d="M224.23,239.1c0,1.36-.36,3.9-1.65,8.53l-.91,3.56h-2l-.91-3.56c-1.32-4.66-1.65-7.17-1.65-8.53a3.56,3.56,0,0,1,7.11,0Zm-7,18.51a3.48,3.48,0,1,1,3.47,3.43A3.44,3.44,0,0,1,217.2,257.61Z" transform="translate(0.04 0.08)"/></svg>