<?xml version="1.0" encoding="utf-8"?>
<!-- Generator: Adobe Illustrator 25.4.1, SVG Export Plug-In . SVG Version: 6.00 Build 0)  -->
<svg version="1.1" id="Layer_1" xmlns="http://www.w3.org/2000/svg" xmlns:xlink="http://www.w3.org/1999/xlink" x="0px" y="0px"
	 viewBox="0 0 1920 1080" style="enable-background:new 0 0 1920 1080;" xml:space="preserve">
<style type="text/css">
	.st0{fill:none;stroke:#FFFFFF;stroke-miterlimit:10;}
	.st1{fill:#919191;}
</style>
<path class="st0" d="M946.11,1080c-43.31-84.15-67.76-179.6-67.76-280.76c0-339.29,275.05-614.33,614.33-614.33
	c166.07,0,316.76,65.9,427.33,172.97"/>
<g>
	<g>
		<path class="st1" d="M1084.05,318.79l-1.56,1.03l-0.37-0.44l2.95-2.48l0.37,0.44l-1.18,1.26L1084.05,318.79z M1087.29,315.04
			l0.35-0.29l7.12,4.48l-0.27,0.23l-3.45-7.56l0.55-0.46l4.22,9.08l-0.44,0.37l-7.34-4.49l0.35-0.29l3.27,7.9l-0.43,0.36l-8.34-5.62
			l1.02-0.85l6.8,4.75l-0.31,0.26L1087.29,315.04z M1087.9,315.56l-1.54,1.01l-0.37-0.44l2.95-2.48l0.37,0.44l-1.2,1.28
			L1087.9,315.56z M1091.52,312.52l-1.29,0.8l-0.37-0.44l2.5-2.09l0.37,0.44l-0.99,1.11L1091.52,312.52z"/>
		<path class="st1" d="M1096.52,308.17l-0.36-0.45l1.56-1.25l0.49,0.61l-0.11,0.09L1096.52,308.17z M1099.98,310.34
			c-0.92-1.15-1.84-2.31-2.79-3.43l1.07-0.86c0.87,1.15,1.79,2.31,2.73,3.48l0.34,0.42c1.02,1.28,1.95,2.44,2.9,3.56l-1.07,0.86
			c-0.87-1.15-1.79-2.31-2.73-3.48L1099.98,310.34z M1100.81,304.01l0.95,0.16l-3.59,2.87l-0.45-0.56l3.98-3.18l1.66,1.92l-0.62,0.5
			L1100.81,304.01z M1103.37,308.38l-2.52,2.01l-0.41-0.51l2.52-2.01L1103.37,308.38z M1103.2,313.34l0.49,0.61l-1.56,1.25
			l-0.36-0.45l1.32-1.33L1103.2,313.34z M1102.69,308.26l-0.78-1.32l0.5-0.4l2.11,2.64l-0.5,0.4l-1.16-1.1L1102.69,308.26z
			 M1106.39,308.54l1.51,2.05l-4.21,3.36l-0.45-0.56l3.81-3.05l-0.06,0.96l-1.24-2.26L1106.39,308.54z"/>
		<path class="st1" d="M1106.44,300.31l-0.35-0.45l3.18-2.43l0.35,0.45l-1.34,1.3l-0.23,0.17L1106.44,300.31z M1107.14,299.06
			l1.09-0.83c0.86,1.19,1.76,2.37,2.66,3.54l0.61,0.79c0.74,0.96,1.64,2.14,2.55,3.26l-1.09,0.83c-0.86-1.19-1.76-2.37-2.66-3.54
			l-0.43-0.57C1108.95,301.36,1108.05,300.18,1107.14,299.06z M1113.02,305.62l0.48,0.62l-1.59,1.22l-0.35-0.45l1.34-1.3
			L1113.02,305.62z M1116.03,300.92l1.52,2.22l-4.05,3.1l-0.43-0.57l3.65-2.8l-0.19,1.04l-1.18-2.48L1116.03,300.92z"/>
		<path class="st1" d="M1126.96,294.42l0.46,0.63l-0.59,0.68l-0.96-1.91l0.7-0.52l1.18,1.7c-0.44,0.92-1.11,1.67-1.92,2.26
			c-2.32,1.7-5.12,1.17-6.84-1.17c-1.69-2.3-1.32-5.23,0.92-6.87c0.62-0.46,1.51-0.95,2.62-1.08l1.27,1.63l-0.7,0.51l-1.54-1.49
			l0.83-0.36l0.51,0.7c-1.1-0.13-1.89,0.15-2.44,0.55c-1.55,1.14-1.92,3.27-0.28,5.51c1.65,2.24,3.66,2.62,5.26,1.45
			C1126.1,296.18,1126.7,295.44,1126.96,294.42z"/>
		<path class="st1" d="M1136.62,283.44c1.79,2.56,1.12,5.32-0.7,6.59c-1.81,1.27-4.58,1.08-6.44-1.58c-1.79-2.56-1.09-5.34,0.71-6.6
			C1131.99,280.59,1134.76,280.78,1136.62,283.44z M1135.52,289.45c1.65-1.16,1.11-3.39-0.12-5.15c-1.23-1.75-3.15-3.02-4.8-1.87
			c-1.65,1.16-1.12,3.4,0.11,5.15C1131.94,289.34,1133.87,290.6,1135.52,289.45z"/>
		<path class="st1" d="M1138.29,276.5l1.57-1.04l0.43,0.65l-0.14,0.1l-1.54,0.77L1138.29,276.5z M1139.36,275.79l0.5-0.33l2.46,3.47
			l2.94,4.42l-0.61,0.4L1139.36,275.79z M1139.37,275.78l1.06-0.7l7.65,5.2l-0.4,0.27l-1.98-8.97l0.63-0.42l2.19,10.03l-0.58,0.39
			L1139.37,275.78z M1143.27,283.99l1.13-1.01l0.24-0.16l1.28-0.6l0.32,0.48l-2.65,1.76L1143.27,283.99z M1148.67,275.77l-2.85-4.28
			l1.08-0.72c0.76,1.22,1.58,2.46,2.41,3.71l0.4,0.59c0.81,1.22,1.64,2.46,2.49,3.66l-1.12,0.74
			C1150.32,278.25,1149.5,277.02,1148.67,275.77z M1146.33,271.15l1.66-1.11l0.32,0.48l-1.43,1.21l-0.12,0.08L1146.33,271.15z
			 M1149.77,279.66l1.31-1.13l0.24-0.16l1.66-0.85l0.32,0.48l-3.21,2.13L1149.77,279.66z"/>
		<path class="st1" d="M1152.83,267.64l-0.3-0.48l1.69-1.07l0.42,0.66l-0.12,0.08L1152.83,267.64z M1156.03,270.17
			c-0.78-1.24-1.58-2.5-2.4-3.72l1.16-0.73c0.73,1.24,1.52,2.5,2.32,3.76l0.29,0.46c0.88,1.39,1.67,2.64,2.49,3.86l-1.16,0.73
			c-0.73-1.24-1.52-2.5-2.32-3.76L1156.03,270.17z M1157.55,263.98l0.92,0.26l-3.89,2.45l-0.38-0.6l4.31-2.72l1.44,2.09l-0.68,0.43
			L1157.55,263.98z M1159.61,268.6l-2.73,1.72l-0.35-0.56l2.73-1.72L1159.61,268.6z M1158.89,273.51l0.42,0.66l-1.69,1.07l-0.3-0.48
			l1.45-1.17L1158.89,273.51z M1158.95,268.41l-0.63-1.39l0.54-0.34l1.8,2.86l-0.54,0.34l-1.03-1.23L1158.95,268.41z M1162.59,269.1
			l1.27,2.2l-4.55,2.87l-0.38-0.6l4.13-2.6l-0.16,0.95l-0.98-2.38L1162.59,269.1z"/>
		<path class="st1" d="M1170.14,257.14l0.19-0.94l0.89,2.42l-0.69,0.4l-1.19-2.25l6.72-3.94l1.38,2.13l-0.69,0.4l-1.68-1.96
			l0.91,0.29L1170.14,257.14z M1174.39,258.95c-0.74-1.27-1.49-2.55-2.28-3.8l1.18-0.69c0.69,1.27,1.44,2.55,2.2,3.84l0.36,0.62
			c0.74,1.27,1.49,2.55,2.27,3.8l-1.18,0.69c-0.69-1.27-1.44-2.55-2.2-3.84L1174.39,258.95z M1177.27,262.31l1.83-0.83l0.29,0.49
			l-3.69,2.17l-0.29-0.49l1.62-1.19L1177.27,262.31z"/>
		<path class="st1" d="M1190.49,250.19c1.52,2.73,0.57,5.41-1.37,6.49c-1.93,1.08-4.66,0.61-6.25-2.23
			c-1.52-2.73-0.54-5.42,1.38-6.49C1186.17,246.88,1188.91,247.35,1190.49,250.19z M1188.78,256.05c1.76-0.98,1.45-3.26,0.41-5.13
			c-1.04-1.87-2.82-3.33-4.58-2.35s-1.46,3.27-0.42,5.14C1185.23,255.58,1187.02,257.03,1188.78,256.05z"/>
		<path class="st1" d="M1199.26,240.71l-0.26-0.51l3.55-1.83l0.26,0.51l-1.55,1.04l-0.25,0.13L1199.26,240.71z M1205.4,244.06
			l-5.69-4.22l1.32-0.68l4.88,3.81l-0.44,0.23l-0.2-6.22l0.65-0.33l0.18,7.05L1205.4,244.06z M1205.57,237.71l-1.51,0.53l-0.26-0.51
			l2.92-1.5l0.26,0.51l-1.17,0.84L1205.57,237.71z M1204.69,243.21l1.14-0.59c0.75,1.45,1.38,2.68,2,3.79l-1.22,0.63
			C1206.09,245.92,1205.45,244.67,1204.69,243.21z M1206.99,245.97l1.88-0.72l0.26,0.51l-3.81,1.96l-0.26-0.51l1.68-1.1
			L1206.99,245.97z"/>
		<path class="st1" d="M1221.04,234.51c1.37,2.81,0.26,5.43-1.72,6.4c-1.99,0.97-4.69,0.35-6.12-2.58
			c-1.37-2.81-0.24-5.44,1.74-6.41S1219.62,231.58,1221.04,234.51z M1219.01,240.27c1.81-0.88,1.63-3.18,0.69-5.1
			c-0.94-1.93-2.63-3.48-4.44-2.6c-1.81,0.88-1.64,3.18-0.7,5.11C1215.49,239.6,1217.2,241.15,1219.01,240.27z"/>
		<path class="st1" d="M1233.77,228.61c1.3,2.84,0.14,5.43-1.87,6.35s-4.7,0.24-6.05-2.72c-1.3-2.84-0.11-5.44,1.89-6.36
			C1229.73,224.97,1232.42,225.65,1233.77,228.61z M1231.6,234.31c1.83-0.84,1.7-3.14,0.81-5.08c-0.89-1.95-2.55-3.54-4.38-2.7
			c-1.83,0.84-1.71,3.14-0.82,5.09S1229.77,235.15,1231.6,234.31z"/>
		<path class="st1" d="M1237.65,222.13l0.95-0.04l-1.66,0.48l-0.23-0.52l1.97-0.85l8.67,5.13l0.6,1.39l-0.42,0.18L1237.65,222.13z
			 M1237.76,221.6l0.88,0.24l3.57,8.26l-0.66,0.28L1237.76,221.6z M1240.21,230.34l1.29-0.79l0.26-0.11l1.59-0.45l0.23,0.52
			l-3.14,1.36L1240.21,230.34z M1242.09,219.73l3.15-1.36l0.23,0.52l-1.22,0.76l-0.26,0.11l-1.66,0.48L1242.09,219.73z
			 M1243.46,219.14l0.66-0.28l3.83,8.87l-0.94-0.37L1243.46,219.14z"/>
		<path class="st1" d="M1257.44,221.27c-0.35-0.86-1.02-1.03-2.36-1.01l-0.58,0.01c-1.56,0.02-2.8-0.37-3.35-1.72
			c-0.62-1.52,0.29-2.97,1.97-3.65c0.89-0.36,1.7-0.37,2.44-0.18l0.62,1.75l-0.79,0.32l-1.18-1.85l1.02,0.09l0.27,0.66
			c-0.91-0.37-1.49-0.4-2.19-0.11c-1.03,0.42-1.6,1.25-1.2,2.25c0.34,0.83,1.08,1.1,2.2,1.08l0.6-0.01c2.02-0.04,3.01,0.46,3.51,1.7
			c0.64,1.56-0.29,3.05-2.1,3.78c-0.99,0.4-2.09,0.48-2.85,0.34l-0.67-1.88l0.79-0.32l1.17,1.9l-1.01-0.02l-0.26-0.63
			c1.06,0.26,1.62,0.34,2.52-0.02C1257.27,223.23,1257.86,222.3,1257.44,221.27z"/>
		<path class="st1" d="M1260.83,212.65l-0.21-0.53l1.87-0.72l0.28,0.73l-0.13,0.05L1260.83,212.65z M1263.48,215.76
			c-0.53-1.37-1.06-2.76-1.63-4.11l1.28-0.49c0.48,1.36,1.01,2.75,1.55,4.15l0.19,0.51c0.59,1.53,1.12,2.92,1.69,4.27l-1.28,0.49
			c-0.48-1.36-1.01-2.75-1.55-4.14L1263.48,215.76z M1266.18,209.98l0.86,0.44l-4.29,1.65l-0.26-0.67l4.75-1.83l1.01,2.33
			l-0.75,0.29L1266.18,209.98z M1265.65,219.6l0.28,0.73l-1.86,0.72l-0.21-0.53l1.65-0.87L1265.65,219.6z M1267.3,214.92l-3.01,1.16
			l-0.24-0.61l3.01-1.16L1267.3,214.92z M1270.13,215.99l0.82,2.41l-5.02,1.93l-0.26-0.67l4.56-1.75l-0.34,0.9l-0.5-2.53
			L1270.13,215.99z M1266.69,214.61l-0.34-1.49l0.6-0.23l1.21,3.16l-0.6,0.23l-0.77-1.4L1266.69,214.61z"/>
		<path class="st1" d="M1282.34,209.15c1.06,2.94-0.32,5.43-2.4,6.18c-2.08,0.75-4.7-0.16-5.8-3.22c-1.06-2.94,0.35-5.44,2.42-6.18
			C1278.62,205.18,1281.24,206.09,1282.34,209.15z M1279.7,214.65c1.89-0.68,1.96-2.98,1.23-5s-2.24-3.74-4.14-3.06
			c-1.89,0.68-1.97,2.99-1.25,5C1276.27,213.61,1277.8,215.33,1279.7,214.65z"/>
		<path class="st1" d="M1292.96,201.1l-0.17-0.54l1.9-0.61l0.24,0.75l-0.14,0.04L1292.96,201.1z M1295.43,204.35
			c-0.45-1.4-0.91-2.81-1.4-4.2l1.3-0.42c0.4,1.38,0.86,2.8,1.32,4.22l0.27,0.83c0.45,1.39,0.86,2.66,1.35,4.05l-1.3,0.42
			c-0.4-1.38-0.86-2.8-1.32-4.22L1295.43,204.35z M1297.81,205.01l-1.34,0.43l-0.2-0.62l1.55-0.5c1.67-0.54,2.04-1.63,1.62-2.92
			c-0.42-1.32-1.4-1.84-3.05-1.31l-1.49,0.48l-0.2-0.62l1.75-0.56c2.25-0.73,3.77,0.01,4.28,1.6
			C1301.21,202.5,1300.58,204.11,1297.81,205.01z M1297.52,208.25l1.83-0.37l0.18,0.54l-3.8,1.23l-0.18-0.54l1.7-0.77
			L1297.52,208.25z"/>
		<path class="st1" d="M1314.42,198.84c0.9,2.99-0.62,5.4-2.74,6.03s-4.68-0.42-5.62-3.53c-0.9-2.99,0.65-5.41,2.75-6.04
			S1313.49,195.73,1314.42,198.84z M1311.48,204.19c1.93-0.58,2.12-2.87,1.51-4.92s-2.03-3.86-3.96-3.28s-2.13,2.87-1.52,4.92
			S1309.55,204.77,1311.48,204.19z"/>
		<path class="st1" d="M1318.41,193.32l-0.15-0.55l1.93-0.53l0.21,0.76l-0.14,0.04L1318.41,193.32z M1320.74,196.68
			c-0.39-1.42-0.78-2.85-1.21-4.25l1.32-0.36c0.35,1.44,0.72,2.79,1.17,4.42l0.11,0.41c0.43,1.56,0.82,2.99,1.25,4.39l-1.32,0.36
			c-0.34-1.4-0.73-2.83-1.13-4.28L1320.74,196.68z M1321.38,196.58l1.72-0.47c1.49-0.41,1.98-1.4,1.68-2.52
			c-0.32-1.16-1.11-1.62-2.54-1.23l-1.87,0.51l-0.17-0.63l1.89-0.52c2.11-0.58,3.59-0.02,4.01,1.5c0.32,1.17-0.31,2.48-2.07,3.13
			l0.01-0.12c1.02-0.18,1.75,0.11,2.46,1.25l1.3,2.1l-0.5-0.14l1.46-0.22l0.15,0.55c-0.23,0.15-0.54,0.3-0.95,0.41
			c-0.85,0.23-1.29,0.12-1.62-0.47l-1.18-2.09c-0.58-1.04-1.14-1.09-2.29-0.78l-1.31,0.36L1321.38,196.58z M1322.65,200.67
			l1.85-0.29l0.15,0.55l-3.85,1.06l-0.15-0.55l1.73-0.7L1322.65,200.67z"/>
		<path class="st1" d="M1331.54,189.92l0.45-0.85l0.18,2.58l-0.77,0.2l-0.51-2.49l7.56-1.91l0.73,2.44l-0.78,0.2l-1.06-2.35
			l0.8,0.54L1331.54,189.92z M1335.12,192.85c-0.36-1.43-0.72-2.86-1.12-4.28l1.33-0.34c0.31,1.41,0.68,2.85,1.04,4.3l0.17,0.69
			c0.36,1.43,0.72,2.87,1.12,4.28l-1.33,0.34c-0.31-1.41-0.68-2.85-1.04-4.3L1335.12,192.85z M1336.95,196.88l1.99-0.28l0.14,0.55
			l-4.15,1.05l-0.14-0.55l1.88-0.7L1336.95,196.88z"/>
		<path class="st1" d="M1343.52,186.8l-0.13-0.56l1.95-0.45l0.18,0.77l-0.14,0.03L1343.52,186.8z M1345.71,190.26
			c-0.33-1.43-0.67-2.88-1.04-4.3l1.34-0.31c0.28,1.42,0.62,2.86,0.96,4.32l0.12,0.53c0.37,1.6,0.71,3.05,1.08,4.47l-1.34,0.31
			c-0.28-1.42-0.62-2.86-0.96-4.32L1345.71,190.26z M1349.19,184.9l0.79,0.55l-4.48,1.04l-0.16-0.7l4.97-1.15l0.67,2.45l-0.78,0.18
			L1349.19,184.9z M1347.46,194.32l1.86-0.21l0.13,0.56l-3.9,0.9l-0.13-0.56l1.76-0.63L1347.46,194.32z M1349.72,189.93l-3.26,0.75
			l-0.15-0.64l3.26-0.75L1349.72,189.93z M1349.16,189.53l-0.13-1.52l0.63-0.15l0.79,3.44l-0.63,0.14l-0.57-1.5L1349.16,189.53z"/>
		<path class="st1" d="M1364.97,186.41c0.64,3.06-1.08,5.33-3.24,5.78c-2.17,0.45-4.63-0.81-5.3-4c-0.64-3.06,1.1-5.33,3.26-5.78
			C1361.84,181.96,1364.31,183.23,1364.97,186.41z M1361.58,191.49c1.97-0.41,2.36-2.68,1.92-4.78s-1.7-4.02-3.67-3.61
			c-1.97,0.41-2.37,2.68-1.93,4.78C1358.34,189.98,1359.61,191.91,1361.58,191.49z"/>
		<path class="st1" d="M1369.38,181.25l-0.1-0.56l3.93-0.73l0.1,0.56l-1.79,0.55l-0.28,0.05L1369.38,181.25z M1370.57,180.45
			l1.35-0.25c0.23,1.45,0.5,2.91,0.77,4.36l0.18,0.98c0.22,1.19,0.5,2.65,0.8,4.06l-1.35,0.25c-0.23-1.45-0.5-2.91-0.77-4.36
			l-0.13-0.7C1371.15,183.32,1370.88,181.86,1370.57,180.45z M1372.86,188.95l0.14,0.77l-1.96,0.37l-0.11-0.56l1.79-0.55
			L1372.86,188.95z M1377.66,186.12l0.35,2.67l-5.01,0.94l-0.13-0.7l4.52-0.85l-0.64,0.85l0.07-2.74L1377.66,186.12z"/>
		<path class="st1" d="M1381.75,179.01l-0.09-0.56l3.94-0.66l0.09,0.56l-1.79,0.52l-0.28,0.05L1381.75,179.01z M1383.72,182.58
			c-0.24-1.45-0.49-2.92-0.78-4.36l1.35-0.23c0.2,1.43,0.44,2.89,0.69,4.37l0.12,0.7c0.24,1.45,0.49,2.92,0.78,4.36l-1.35,0.23
			c-0.2-1.43-0.44-2.89-0.69-4.37L1383.72,182.58z M1385.22,186.75l1.87-0.1l0.1,0.56l-3.94,0.66l-0.1-0.56l1.8-0.52L1385.22,186.75
			z"/>
		<path class="st1" d="M1400.23,180.36c0.46,3.09-1.38,5.26-3.57,5.58s-4.58-1.08-5.06-4.3c-0.46-3.09,1.41-5.26,3.58-5.58
			C1397.36,175.74,1399.75,177.15,1400.23,180.36z M1396.56,185.24c1.99-0.3,2.51-2.54,2.19-4.66c-0.32-2.12-1.46-4.11-3.46-3.81
			s-2.52,2.54-2.21,4.66S1394.57,185.54,1396.56,185.24z"/>
		<path class="st1" d="M1407.11,175.28c0.07,0.52,0.09,1.89,0.16,3.9l0.07,1.99l-0.51,0.07l-0.44-1.94
			c-0.44-1.96-0.77-3.28-0.84-3.81c-0.08-0.61,0.18-0.9,0.67-0.97C1406.7,174.46,1407.03,174.67,1407.11,175.28z M1406.5,183.63
			c-0.06-0.48,0.28-0.96,0.77-1.02c0.5-0.06,0.95,0.31,1.01,0.79s-0.28,0.94-0.78,1.01C1407.01,184.47,1406.56,184.11,1406.5,183.63
			z"/>
	</g>
</g>
</svg>
