<svg id="Layer_1" data-name="Layer 1" xmlns="http://www.w3.org/2000/svg" width="89.14" height="94.24" viewBox="0 0 89.14 94.24"><defs><style>.cls-1{fill:#f93700;}.cls-2{fill:none;stroke:#f93700;stroke-miterlimit:10;stroke-width:0.25px;}.cls-3{fill:#dbd5c9;}</style></defs><path class="cls-1" d="M12.41,32.22l-1,1.15L11,33.11l1.77-2.6.39.26L12.54,32Zm1.72-3.67.21-.31,6.6,1.94-.16.24-4.4-5.18.33-.48L22.05,31l-.27.38L15,29.45l.21-.31,4.32,5.48L19.3,35l-7.81-2.57.61-.89,6.4,2.22-.18.27Zm.59.27-1,1.14-.39-.26,1.77-2.61.39.26-.66,1.28Zm2.17-3.19-.83.91-.39-.26,1.5-2.2.39.27L17,25.44Z" transform="translate(-11.03 -7.9)"/><path class="cls-1" d="M19.13,22.94l-.31-.34L20,21.49l.44.47-.09.08Zm3,1.55c-.82-.88-1.65-1.77-2.49-2.62l.82-.76c.78.88,1.6,1.77,2.44,2.67l.3.32c.91,1,1.74,1.88,2.58,2.73l-.82.76c-.78-.88-1.6-1.77-2.44-2.67Zm.29-5.2.78.07-2.75,2.56-.4-.43,3-2.83,1.47,1.46-.47.44Zm2.35,3.4-1.93,1.8-.37-.4,1.93-1.79Zm-.56-.05-.71-1,.38-.36,1.88,2-.38.36-1-.83Zm.72,4.1.44.47-1.2,1.11L23.81,28l1-1.16Zm2.31-4.09,1.35,1.57-3.22,3-.4-.42,2.92-2.72,0,.79-1.15-1.77Z" transform="translate(-11.03 -7.9)"/><path class="cls-1" d="M25.3,17.49l-.25-.39,2.74-1.77.26.39-1.18,1-.2.12Zm.65-1,.94-.61c.62,1,1.28,2.05,1.93,3.06l.44.68c.54.83,1.2,1.85,1.87,2.82l-.94.61c-.63-1-1.28-2-1.93-3.06l-.32-.49C27.28,18.51,26.62,17.49,26,16.52Zm4.36,5.72.35.54-1.38.88L29,23.27l1.18-1Zm2.75-3.62,1.09,1.9-3.49,2.26-.32-.49,3.15-2-.22.84L32.48,19Z" transform="translate(-11.03 -7.9)"/><path class="cls-1" d="M40,16.68l.25.59-.6.43-.4-1.7.65-.28.61,1.58a4.92,4.92,0,0,1-1.95,1.43,3.83,3.83,0,0,1-5.21-2.23,3.89,3.89,0,0,1,2-5.29,4.55,4.55,0,0,1,2.29-.36l.7,1.54-.65.28-.94-1.48.73-.13.27.66a2.78,2.78,0,0,0-2.05,0c-1.45.62-2.14,2.24-1.26,4.33s2.42,2.78,3.91,2.15A3.25,3.25,0,0,0,40,16.68Z" transform="translate(-11.03 -7.9)"/><path class="cls-1" d="M47.78,12.07c.51,2.5-.89,4.35-2.66,4.71s-3.78-.67-4.31-3.27a3.78,3.78,0,0,1,2.67-4.72C45.23,8.43,47.24,9.47,47.78,12.07ZM45,16.21c1.61-.33,1.93-2.18,1.58-3.89s-1.38-3.29-3-3-1.94,2.19-1.59,3.9S43.39,16.54,45,16.21Z" transform="translate(-11.03 -7.9)"/><path class="cls-1" d="M49.16,15.24l1.23-.14h.23l1.14.21v.46l-2.6-.06Zm.17-7.34,1.54,0v.64h-.14l-1.4-.2Zm1.05,0,.49,0,0,3.47-.11,4.34H50.2Zm0,0,1,0L54.12,15h-.39L56.6,8.07l.62,0L54,15.82h-.57Zm5.14,7.47,1.4-.14h.23l1.52.21,0,.47-3.14-.08Zm1.09-3.12.1-4.2,1.06,0c-.07,1.18-.09,2.39-.12,3.61l0,.58c0,1.21,0,2.42,0,3.62l-1.09,0C56.57,14.71,56.6,13.5,56.63,12.27Zm.6-4.18,1.63,0v.47l-1.52.14h-.12Z" transform="translate(-11.03 -7.9)"/><path class="cls-1" d="M61.25,16l-.16.63-1.58-.39.11-.46,1.51.2Zm.33-3.57c.29-1.17.58-2.35.83-3.52l1.09.26c-.32,1.14-.6,2.32-.9,3.51l-.1.43c-.32,1.3-.61,2.48-.86,3.65l-1.09-.27c.32-1.13.6-2.31.9-3.5Zm4.36,3.25-.58,2-4.27-1,.14-.57,3.88.95-.65.44.84-1.93ZM61.26,9.09l.11-.45L63,9l-.16.62-.11,0Zm3.28,4.54L62,13l.13-.52,2.56.63ZM66.09,9.8l.37.69L62.82,9.6,63,9l4,1-.42,2L66,11.9Zm-1.81,3.34L64.74,12l.51.12-.66,2.69-.51-.13.14-1.3Z" transform="translate(-11.03 -7.9)"/><path class="cls-1" d="M65,20.41V20a3,3,0,0,0,2.51-1.42l-.15.48L67,18.44a1,1,0,0,1-.09-.93.66.66,0,0,1,.91-.41,1,1,0,0,1,.55.58,2.73,2.73,0,0,1-.19.82A3.33,3.33,0,0,1,65,20.41Z" transform="translate(-11.03 -7.9)"/><path class="cls-1" d="M74.86,21.68l1.27,1-.25.39L73,21.19l.25-.39,1.47.75Zm1-2.75.88.58c-.72,1.11-1.34,2.06-1.88,2.94L74,21.84C74.53,21,75.15,20.06,75.88,18.93Zm-.42-4.86.26-.39,2.73,1.78-.25.39-1.37-.68L76.64,15Zm.11,5.7L76.26,14l1,.67-.73,5-.34-.22,4.33-2.66.5.33-4.93,3Zm4.57-2.44-1-.86.25-.39,2.25,1.47-.26.39-1.07-.49Z" transform="translate(-11.03 -7.9)"/><path class="cls-1" d="M85.24,26.14a3.76,3.76,0,0,1-5.38.52c-1.32-1.24-1.62-3.48.21-5.42a3.77,3.77,0,0,1,5.39-.51C86.77,22,87.07,24.21,85.24,26.14Zm-5,.1c1.19,1.13,2.89.33,4.09-.94s1.91-3,.71-4.14-2.9-.35-4.1.93S79.06,25.11,80.26,26.24Z" transform="translate(-11.03 -7.9)"/><path class="cls-1" d="M90.54,33.43a3.77,3.77,0,0,1-5.38-.6c-1-1.49-.86-3.74,1.32-5.26a3.79,3.79,0,0,1,5.39.61C92.89,29.66,92.72,31.92,90.54,33.43Zm-4.9-.93c.94,1.35,2.76.92,4.2-.08s2.49-2.55,1.55-3.91-2.77-.93-4.21.07S84.7,31.15,85.64,32.5Z" transform="translate(-11.03 -7.9)"/><path class="cls-1" d="M88.09,36l.64,1.06.09.22.36,1.3-.43.18-1.09-2.57Zm7.14-2-.2.72-6.76,2.87L88,37.1ZM94.8,34l0,.77-.39-1.35.43-.19.68,1.61-4.23,7.06-1.14.48L90,42Zm2.42,4.76.22.53-7.26,3.09.31-.76Zm-.48-1.13,1.09,2.58-.43.18-.61-1-.09-.21-.39-1.36Z" transform="translate(-11.03 -7.9)"/><path class="cls-1" d="M93.43,47.49c.74-.16,1-.68,1.14-1.76l.07-.47c.19-1.26.67-2.2,1.83-2.47,1.31-.29,2.35.63,2.68,2.08a3.14,3.14,0,0,1-.18,2l-1.5.26-.15-.68L99,45.73l-.21.81-.57.13a2.13,2.13,0,0,0,.39-1.74c-.2-.89-.8-1.46-1.65-1.27s-1,.72-1.16,1.63l-.07.48c-.25,1.63-.77,2.36-1.84,2.6-1.34.3-2.42-.64-2.77-2.2a4.5,4.5,0,0,1,.11-2.34l1.6-.29.16.68-1.69.69.16-.81L92,44a2.87,2.87,0,0,0-.32,2C91.89,47.09,92.55,47.69,93.43,47.49Z" transform="translate(-11.03 -7.9)"/><path class="cls-1" d="M92.75,51.2l-.64,0L92,49.61l.47,0,.27,1.51Zm3.52-.74c1.2-.07,2.41-.15,3.61-.26l.07,1.12c-1.18,0-2.39.11-3.61.19l-.45,0c-1.34.08-2.55.15-3.74.26l-.07-1.12c1.18,0,2.39-.11,3.61-.18Zm-1.81,5.13-2.08,0-.27-4.39.58,0,.25,4-.61-.49,2.09.23Zm1.92-2.34,1.25.1,0,.52L94.9,54l0-.52,1.28-.26Zm-.39.4L95.83,51l.53,0,.16,2.63Zm4.12.34-.55.56-.23-3.75.58,0,.26,4.16-2.07.21,0-.65Zm-.76-4.83.46,0,.1,1.63-.64,0v-.11Z" transform="translate(-11.03 -7.9)"/><path class="cls-1" d="M95.39,64.08c-2.54-.32-3.83-2.24-3.6-4s1.85-3.36,4.49-3a3.77,3.77,0,0,1,3.6,4C99.66,62.85,98,64.42,95.39,64.08Zm-3-4c-.2,1.63,1.45,2.53,3.18,2.75S99.1,62.63,99.3,61s-1.44-2.55-3.17-2.77S92.57,58.49,92.36,60.12Z" transform="translate(-11.03 -7.9)"/><path class="cls-1" d="M90.39,69.1l-.74,1.34-.43-.18,1.24-3,.43.18-.41,1.46Zm3.53.76c1.11.45,2.24.91,3.36,1.34l-.42,1c-1.08-.48-2.2-.94-3.33-1.4l-.66-.27c-1.1-.45-2.12-.87-3.24-1.29l.42-1c1.08.48,2.2.94,3.33,1.4ZM92.26,71l.44-1.07.5.21-.51,1.22a1.73,1.73,0,0,0,1,2.56c1,.43,1.89.09,2.42-1.21l.49-1.19.5.2-.57,1.4c-.74,1.79-2,2.34-3.26,1.82S91.36,73.19,92.26,71Zm5-1,.43.17-.62,1.51-.59-.24,0-.11Z" transform="translate(-11.03 -7.9)"/><path class="cls-1" d="M87.26,81.58c-2.14-1.39-2.47-3.69-1.48-5.21s3.14-2.21,5.37-.76a3.79,3.79,0,0,1,1.47,5.22C91.64,82.33,89.48,83,87.26,81.58Zm-1-4.89c-.9,1.38.19,2.91,1.65,3.86s3.31,1.34,4.21,0-.19-2.92-1.65-3.87S87.17,75.31,86.27,76.69Z" transform="translate(-11.03 -7.9)"/><path class="cls-1" d="M85.38,84l-1,1a1.6,1.6,0,0,0-.13,2.47c.7.68,1.45.67,2.29-.2l1.11-1.14.38.37-1.11,1.15c-1.24,1.28-2.51,1.51-3.44.61-.72-.69-.82-1.87.15-3.06l0,.09a1.77,1.77,0,0,1-2.25.15l-1.79-.94.41-.1-.93.76-.34-.32a3.07,3.07,0,0,1,.5-.69c.5-.52.86-.61,1.34-.34l1.7,1c.84.49,1.26.3,1.93-.4l.77-.8Zm-2.6-2.35-1.18,1-.34-.32L83.53,80l.34.32-.93,1.21Zm3,2c.86.83,1.73,1.68,2.62,2.49l-.78.8C86.79,86.1,86,85.31,85,84.35l-.25-.24c-1-.91-1.82-1.76-2.71-2.57l.78-.8c.82.84,1.69,1.68,2.58,2.53Zm3,1.39.34.32L88,86.57l-.46-.45.08-.08Z" transform="translate(-11.03 -7.9)"/><path class="cls-1" d="M76.41,87.38,75,88.2l-.27-.38,2.82-2.06.28.38-1.22,1.1ZM79,89.87c.71,1,1.43,1.95,2.16,2.9l-.9.66c-.67-1-1.38-2-2.1-2.94L77.83,90c-.7-1-1.42-2-2.15-2.9l.9-.66c.67,1,1.38,2,2.1,2.94ZM82.63,91l-.08.78-.92-1.9.52-.38,1.15,1.73L78.16,95l-1.3-1.62.53-.38,1.52,1.46-.77-.17Z" transform="translate(-11.03 -7.9)"/><path class="cls-1" d="M71.17,94.5l.39,1.18-.47.24-1.27-2.59.47-.23L71,94.18Zm.46-4.13-1.43.52L70,90.47,72.92,89l.2.42-1.28.83ZM72,98.18l-.72-.29,3.36-1.66.26.52-3.73,1.84-1-1.82.58-.29Zm-1.36-3.89,2.45-1.21.24.48-2.45,1.21Zm3.13-1c.53,1.07,1.07,2.16,1.63,3.22l-1,.5c-.49-1.07-1-2.16-1.57-3.26l-.2-.4c-.59-1.2-1.13-2.29-1.69-3.35l1-.49c.48,1.07,1,2.16,1.56,3.25Zm2.39,2.33.2.42-1.46.72-.28-.58.1,0Z" transform="translate(-11.03 -7.9)"/><path class="cls-1" d="M61.21,97.59a3.76,3.76,0,0,1,2.33-4.89c1.74-.48,3.82.41,4.53,3a3.77,3.77,0,0,1-2.34,4.89C64,101,61.92,100.15,61.21,97.59Zm2.49-4.33c-1.59.44-1.78,2.31-1.31,4s1.6,3.18,3.18,2.74,1.79-2.31,1.32-4S65.28,92.82,63.7,93.26Z" transform="translate(-11.03 -7.9)"/><path class="cls-1" d="M53.79,96.6l-.08-2.19L57.86,94l0,.58L54.17,95l.59-.63-.27,2.22Zm6.35,4.61,0,.46-3.25.29,0-.46,1.49-.31.23,0Zm-1,.56-1.11.1c-.08-1.2-.18-2.41-.29-3.6l-.07-.82c-.09-1-.2-2.19-.34-3.36l1.12-.1c.07,1.2.17,2.41.28,3.6l0,.58C58.86,99.39,59,100.6,59.11,101.77Zm-1.19-7.09L57.86,94l1.62-.15.05.47-1.5.31Z" transform="translate(-11.03 -7.9)"/><path class="cls-1" d="M52.49,101.68l0,.46L49.2,102l0-.46,1.52-.11H51ZM51.05,94.9l-1.51-.24,0-.47,3.26.15,0,.47-1.52.1Zm.47,3.58c-.05,1.2-.11,2.41-.13,3.61l-1.12,0c.09-1.17.15-2.38.21-3.6l0-.59c.06-1.2.11-2.41.13-3.61l1.12.05c-.09,1.18-.14,2.39-.2,3.61Z" transform="translate(-11.03 -7.9)"/><path class="cls-1" d="M41.07,96.69c.5-2.5,2.51-3.66,4.28-3.31s3.22,2.09,2.7,4.7a3.76,3.76,0,0,1-4.29,3.3C42,101,40.55,99.3,41.07,96.69ZM45.24,94c-1.61-.32-2.63,1.26-3,3s0,3.56,1.6,3.88,2.64-1.26,3-3S46.85,94.28,45.24,94Z" transform="translate(-11.03 -7.9)"/><path class="cls-2" d="M20.53,40.38A36,36,0,1,1,40.54,89" transform="translate(-11.03 -7.9)"/><path class="cls-3" d="M34.29,36V33H53.43v3L45.28,37h-2ZM50.72,61.19,36.91,33h9.44L57.07,56.55,55,56.69,66,33h3.77L56.07,61.19Zm3.9,10,9.23,1v3H43.44v-3l9.14-1ZM49.52,55.8h8.23c0,8.42,0,13.6.19,19.34H49.33C49.52,69.53,49.52,64.31,49.52,55.8ZM65.72,37,59.21,36V33H73.06v3l-6,.95Z" transform="translate(-11.03 -7.9)"/></svg>