<?xml version="1.0" encoding="utf-8"?>
<!-- Generator: Adobe Illustrator 25.4.1, SVG Export Plug-In . SVG Version: 6.00 Build 0)  -->
<svg version="1.1" id="Layer_1" xmlns="http://www.w3.org/2000/svg" xmlns:xlink="http://www.w3.org/1999/xlink" x="0px" y="0px"
	 viewBox="0 0 89.1 94.2" style="enable-background:new 0 0 89.1 94.2;" xml:space="preserve">
<style type="text/css">
	.st0{fill:#FFFFFF;}
	.st1{fill:#DBD5C9;}
	.st2{fill:none;stroke:#DBD5C9;stroke-miterlimit:10;}
	.st3{fill:#F93700;}
</style>
<circle class="st0" cx="44.6" cy="47.6" r="43.2"/>
<path class="st1" d="M10.1,29.4l-0.8,0.9l-0.3-0.2l1.4-2.1l0.3,0.2l-0.5,1L10.1,29.4z M11.4,26.5l0.2-0.2l5.3,1.6L16.8,28l-3.5-4.1
	l0.3-0.4l4.3,5l-0.2,0.3l-5.4-1.5l0.2-0.2l3.5,4.4l-0.2,0.3l-6.2-2.1l0.5-0.7l5.1,1.8l-0.1,0.2L11.4,26.5z M11.9,26.7l-0.8,0.9
	l-0.3-0.2l1.4-2.1l0.3,0.2l-0.5,1L11.9,26.7z M13.7,24.1L13,24.9l-0.3-0.2l1.2-1.8l0.3,0.2L13.7,24L13.7,24.1z"/>
<path class="st1" d="M15.4,22l-0.2-0.3l0.9-0.9l0.4,0.4l-0.1,0.1L15.4,22z M17.8,23.2c-0.7-0.7-1.3-1.4-2-2.1l0.7-0.6
	c0.6,0.7,1.3,1.4,1.9,2.1l0.2,0.3c0.7,0.8,1.4,1.5,2.1,2.2l-0.7,0.6c-0.6-0.7-1.3-1.4-1.9-2.1L17.8,23.2z M18.1,19.1l0.6,0.1l-2.2,2
	l-0.3-0.3l2.4-2.3l1.2,1.2l-0.4,0.4L18.1,19.1z M19.9,21.8l-1.5,1.4l-0.3-0.3l1.5-1.4L19.9,21.8z M19.5,21.7l-0.6-0.8l0.3-0.3
	l1.5,1.6l-0.3,0.3l-0.8-0.7L19.5,21.7z M20.1,25l0.4,0.4l-1,0.9L19.2,26L20.1,25L20.1,25z M21.9,21.7L23,23l-2.6,2.4l-0.3-0.3
	l2.3-2.2v0.6l-0.9-1.4L21.9,21.7z"/>
<path class="st1" d="M20.4,17.6l-0.2-0.3l2.2-1.4l0.2,0.3L21.6,17l-0.2,0.1L20.4,17.6z M20.9,16.8l0.8-0.5c0.5,0.8,1,1.6,1.5,2.4
	l0.4,0.5c0.4,0.7,1,1.5,1.5,2.3l-0.8,0.5c-0.5-0.8-1-1.6-1.5-2.4l-0.3-0.4C22,18.4,21.4,17.6,20.9,16.8L20.9,16.8z M24.4,21.4
	l0.3,0.4l-1.1,0.7l-0.2-0.3l0.9-0.8L24.4,21.4z M26.6,18.5l0.9,1.5l-2.8,1.8l-0.3-0.4l2.5-1.6l-0.2,0.7l-0.6-1.7L26.6,18.5z"/>
<path class="st1" d="M32.1,17l0.2,0.5l-0.5,0.3l-0.3-1.4l0.5-0.2l0.5,1.3c-0.4,0.5-1,0.9-1.6,1.1c-1.5,0.7-3.4,0-4.1-1.5
	c0-0.1-0.1-0.2-0.1-0.3c-0.8-1.5-0.1-3.4,1.4-4.2c0.1,0,0.1,0,0.2-0.1c0.6-0.3,1.2-0.4,1.8-0.3l0.6,1.2l-0.5,0.2l-0.8-1.2l0.6-0.1
	l0.2,0.5c-0.5-0.2-1.1-0.2-1.6,0c-1.2,0.5-1.7,1.8-1,3.5c0.7,1.7,1.9,2.2,3.1,1.7C31.4,18,31.8,17.5,32.1,17z"/>
<path class="st1" d="M38.3,13.3c0.4,2-0.7,3.5-2.1,3.8c-1.4,0.3-3-0.5-3.4-2.6c-0.5-1.6,0.4-3.3,2-3.7c0,0,0.1,0,0.1,0
	C36.3,10.4,37.9,11.2,38.3,13.3z M36.1,16.6c1.3-0.3,1.5-1.7,1.3-3.1s-1.1-2.6-2.4-2.4s-1.6,1.7-1.3,3.1S34.8,16.9,36.1,16.6z"/>
<path class="st1" d="M39.4,15.8l1-0.1h0.2l0.9,0.2v0.4l-2.1,0V15.8z M39.6,10h1.2v0.5h-0.1l-1.1-0.2V10z M40.4,10h0.4v2.8l-0.1,3.5
	h-0.4L40.4,10z M40.4,10h0.8l2.2,5.7h-0.3l2.3-5.5h0.5l-2.6,6.2h-0.5L40.4,10z M44.5,15.9l1.1-0.1h0.2L47,16v0.4l-2.5-0.1L44.5,15.9
	z M45.4,13.4l0.1-3.4h0.8C46.3,11,46.2,12,46.2,13v0.5c0,1,0,1.9,0,2.9h-0.9C45.4,15.4,45.4,14.4,45.4,13.4L45.4,13.4z M45.9,10.1
	h1.3v0.4L46,10.6h-0.1L45.9,10.1z"/>
<path class="st1" d="M49.1,16.4L49,16.9l-1.3-0.3l0.1-0.4L49.1,16.4L49.1,16.4z M49.4,13.6c0.2-0.9,0.5-1.9,0.7-2.8l0.9,0.2
	c-0.3,0.9-0.5,1.9-0.7,2.8l-0.1,0.3c-0.3,1-0.5,2-0.7,2.9l-0.9-0.2c0.3-0.9,0.5-1.8,0.7-2.8L49.4,13.6z M52.8,16.2l-0.5,1.6L49,17
	l0.1-0.5l3.1,0.8l-0.5,0.4l0.7-1.5L52.8,16.2z M49.1,10.9l0.1-0.4l1.3,0.3l-0.1,0.5h-0.1L49.1,10.9z M51.7,14.5l-2-0.5l0.1-0.4
	l2,0.5L51.7,14.5z M53,11.5l0.3,0.6l-2.9-0.7l0.1-0.5l3.2,0.8l-0.3,1.6l-0.5-0.1L53,11.5z M51.5,14.1l0.4-0.9l0.4,0.1l-0.5,2.1
	l-0.4-0.1l0.1-1L51.5,14.1z"/>
<path class="st1" d="M52.1,20v-0.3c0.8,0,1.6-0.4,2-1.1L54,18.9l-0.3-0.5c-0.1-0.2-0.2-0.5-0.1-0.7c0.1-0.3,0.4-0.4,0.7-0.4
	c0,0,0,0,0.1,0c0.2,0.1,0.4,0.3,0.4,0.5c0,0.2-0.1,0.4-0.2,0.7C54.2,19.4,53.2,20,52.1,20z"/>
<path class="st1" d="M60,21l1,0.8l-0.2,0.3l-2.3-1.5l0.2-0.3l1.2,0.6L60,21z M60.8,18.8l0.7,0.5c-0.6,0.9-1.1,1.6-1.5,2.3l-0.7-0.5
	C59.7,20.4,60.2,19.7,60.8,18.8L60.8,18.8z M60.4,14.9l0.2-0.3l2.2,1.4l-0.2,0.3l-1.1-0.5l-0.1-0.1L60.4,14.9z M60.5,19.4l0.6-4.6
	l0.8,0.5l-0.6,4L61,19.2l3.5-2.1l0.4,0.3L61,19.7L60.5,19.4z M64.2,17.5l-0.8-0.7l0.2-0.3l1.8,1.2L65.2,18l-0.9-0.4L64.2,17.5z"/>
<path class="st1" d="M68.3,24.5c-1,1.3-2.9,1.5-4.2,0.5c0,0-0.1,0-0.1-0.1c-1.1-1-1.3-2.8,0.2-4.3c1-1.3,2.9-1.5,4.2-0.5
	c0,0,0,0,0.1,0.1C69.5,21.2,69.7,23,68.3,24.5z M64.3,24.6c1,0.9,2.3,0.3,3.3-0.8c1-1,1.5-2.4,0.6-3.3c-1-0.9-2.3-0.3-3.3,0.7
	S63.3,23.7,64.3,24.6L64.3,24.6z"/>
<path class="st1" d="M72.5,30.4c-1.3,1.1-3.2,0.9-4.2-0.4c0,0,0,0-0.1-0.1c-0.8-1.2-0.7-3,1.1-4.2c1.3-1.1,3.2-0.9,4.3,0.4
	c0,0,0,0,0,0.1C74.4,27.3,74.2,29.2,72.5,30.4z M68.6,29.6c0.8,1.1,2.2,0.7,3.4-0.1c1.2-0.8,2-2,1.2-3.1c-0.8-1.1-2.2-0.7-3.4,0.1
	C68.7,27.3,67.8,28.5,68.6,29.6z"/>
<path class="st1" d="M70.5,32.4l0.5,0.8l0.1,0.2l0.3,1l-0.3,0.1l-0.9-2.1L70.5,32.4z M76.2,30.8l-0.2,0.6l-5.4,2.3l-0.2-0.4
	L76.2,30.8z M75.9,30.8v0.6l-0.3-1.1l0.3-0.2l0.5,1.3l-3.4,5.6l-0.9,0.4l-0.1-0.3L75.9,30.8z M77.8,34.6L78,35l-5.8,2.5l0.2-0.6
	L77.8,34.6z M77.5,33.7l0.9,2.1L78,35.9l-0.5-0.8L77.4,35l-0.3-1.1L77.5,33.7z"/>
<path class="st1" d="M74.8,41.6c0.6-0.1,0.8-0.5,0.9-1.4l0.1-0.4c0.2-1,0.5-1.8,1.5-2c1-0.2,1.9,0.5,2.1,1.7
	c0.1,0.5,0.1,1.1-0.1,1.6L78,41.3l-0.1-0.5l1.3-0.6l-0.2,0.6l-0.5,0.1c0.3-0.4,0.4-0.9,0.3-1.4c-0.2-0.7-0.6-1.2-1.3-1
	c-0.7,0.2-0.8,0.6-0.9,1.3l-0.1,0.4c-0.2,1.3-0.6,1.9-1.5,2.1c-1.1,0.2-1.9-0.5-2.2-1.8c-0.1-0.6-0.1-1.3,0.1-1.9l1.3-0.2l0.1,0.5
	l-1.4,0.6l0.1-0.6l0.4-0.1c-0.3,0.5-0.4,1.1-0.3,1.6C73.6,41.3,74.1,41.8,74.8,41.6z"/>
<path class="st1" d="M74.3,44.6h-0.5l-0.1-1.3H74L74.3,44.6L74.3,44.6z M77.1,44c1-0.1,1.9-0.1,2.9-0.2l0.1,0.9
	c-0.9,0-1.9,0.1-2.9,0.2h-0.4c-1.1,0.1-2,0.1-3,0.2l-0.1-0.9c0.9,0,1.9-0.1,2.9-0.1L77.1,44z M75.6,48.1H74l-0.2-3.5h0.5l0.2,3.2
	l-0.5-0.4l1.7,0.2L75.6,48.1z M77.2,46.2l1,0.1v0.4L76,46.8v-0.4l1-0.2L77.2,46.2z M76.9,46.5l-0.1-2.1h0.4l0.1,2.1L76.9,46.5z
	 M80.1,46.8l-0.4,0.4l-0.2-3H80l0.2,3.3l-1.7,0.2v-0.5L80.1,46.8z M79.5,42.9h0.4l0.1,1.3h-0.5v-0.1L79.5,42.9z"/>
<path class="st1" d="M76.4,54.9c-2-0.3-3.1-1.8-2.9-3.2c0.2-1.4,1.5-2.7,3.6-2.4c1.7,0.1,3,1.5,2.9,3.1c0,0,0,0,0,0.1
	C79.8,53.9,78.5,55.1,76.4,54.9z M74,51.7c-0.2,1.3,1.2,2,2.5,2.2c1.4,0.2,2.8-0.2,3-1.5c0.2-1.3-1.2-2-2.5-2.2
	C75.6,50,74.1,50.4,74,51.7L74,51.7z"/>
<path class="st1" d="M72.4,58.9l-0.6,1.1l-0.3-0.1l1-2.4l0.3,0.1l-0.3,1.2L72.4,58.9z M75.2,59.5c0.9,0.4,1.8,0.7,2.7,1.1l-0.3,0.8
	c-0.9-0.4-1.8-0.8-2.7-1.1L74.4,60c-0.9-0.4-1.7-0.7-2.6-1l0.3-0.8c0.9,0.4,1.8,0.8,2.7,1.1L75.2,59.5z M73.9,60.4l0.4-0.9l0.4,0.2
	l-0.4,1c-0.4,0.7-0.2,1.5,0.5,1.9c0.1,0.1,0.2,0.1,0.3,0.1c0.8,0.3,1.5,0.1,1.9-1l0.4-1l0.4,0.2l-0.5,1.1c-0.6,1.4-1.6,1.9-2.6,1.5
	C73.7,63.1,73.2,62.1,73.9,60.4z M77.9,59.6l0.3,0.1l-0.5,1.2l-0.5-0.2v-0.1L77.9,59.6z"/>
<path class="st1" d="M69.9,68.8c-1.7-1.1-2-2.9-1.2-4.2c0.8-1.2,2.5-1.8,4.3-0.6c1.5,0.8,2,2.6,1.2,4.1c0,0,0,0,0,0.1
	C73.4,69.4,71.7,70,69.9,68.8z M69.1,64.9c-0.7,1.1,0.2,2.3,1.3,3.1s2.6,1.1,3.4,0s-0.2-2.3-1.3-3.1C71.3,64.2,69.8,63.8,69.1,64.9
	L69.1,64.9z"/>
<path class="st1" d="M68.4,70.8l-0.8,0.8c-0.6,0.4-0.7,1.2-0.3,1.8c0,0.1,0.1,0.1,0.2,0.2c0.6,0.5,1.2,0.5,1.8-0.2l0.9-0.9l0.3,0.3
	l-0.9,0.9c-1,1-2,1.2-2.7,0.5c-0.6-0.6-0.7-1.5,0.1-2.4v0.1c-0.5,0.5-1.2,0.5-1.8,0.1l-1.4-0.8l0.3-0.1l-0.7,0.6l-0.3-0.3
	c0.1-0.2,0.2-0.4,0.4-0.6c0.4-0.4,0.7-0.5,1.1-0.3l1.4,0.8c0.7,0.4,1,0.2,1.5-0.3l0.6-0.6L68.4,70.8z M66.3,68.9l-0.9,0.8l-0.3-0.3
	l1.8-1.9l0.3,0.3l-0.7,1L66.3,68.9z M68.7,70.5c0.7,0.7,1.4,1.3,2.1,2l-0.6,0.6c-0.7-0.7-1.3-1.3-2.1-2.1l-0.2-0.2
	c-0.8-0.7-1.5-1.4-2.2-2.1l0.6-0.6c0.7,0.7,1.4,1.3,2.1,2L68.7,70.5z M71.1,71.6l0.3,0.3l-0.9,1l-0.4-0.4l0.1-0.1L71.1,71.6z"/>
<path class="st1" d="M61.2,73.5l-1.1,0.7l-0.2-0.3l2.3-1.6l0.2,0.3l-1,0.9L61.2,73.5z M63.3,75.5c0.6,0.8,1.1,1.6,1.7,2.3l-0.7,0.5
	c-0.5-0.8-1.1-1.6-1.7-2.3l-0.3-0.4c-0.6-0.8-1.1-1.6-1.7-2.3l0.7-0.5c0.5,0.8,1.1,1.6,1.7,2.3L63.3,75.5z M66.2,76.4L66.1,77
	l-0.7-1.5l0.4-0.3l0.9,1.4l-4.1,3l-1-1.3L62,78l1.2,1.2L62.6,79L66.2,76.4z"/>
<path class="st1" d="M57,79.2l0.3,0.9L57,80.3l-1-2.1l0.4-0.2l0.6,0.9L57,79.2z M57.4,75.9l-1.1,0.4l-0.2-0.3l2.3-1.2l0.2,0.3
	l-1,0.7L57.4,75.9z M57.7,82.1l-0.6-0.2l2.7-1.3L60,81l-3,1.5L56.2,81l0.5-0.2L57.7,82.1z M56.6,79l2-1l0.2,0.4l-2,1L56.6,79z
	 M59.1,78.2c0.4,0.9,0.9,1.7,1.3,2.6l-0.8,0.4c-0.4-0.9-0.8-1.7-1.3-2.6l-0.2-0.3c-0.5-1-0.9-1.8-1.4-2.7l0.8-0.4
	c0.4,0.9,0.8,1.7,1.2,2.6L59.1,78.2z M61,80.1l0.2,0.3L60,81l-0.2-0.5h0.1L61,80.1z"/>
<path class="st1" d="M49.1,81.6c-0.6-1.6,0.2-3.3,1.8-3.9c0,0,0.1,0,0.1,0c1.4-0.4,3.1,0.3,3.6,2.4c0.6,1.6-0.2,3.3-1.8,3.9
	c0,0-0.1,0-0.1,0C51.3,84.4,49.6,83.7,49.1,81.6z M51.1,78.2c-1.3,0.4-1.4,1.8-1,3.2c0.4,1.4,1.3,2.5,2.5,2.2s1.4-1.8,1.1-3.2
	S52.3,77.8,51.1,78.2z"/>
<path class="st1" d="M43.1,80.8l-0.1-1.7l3.3-0.3v0.5l-2.9,0.3l0.5-0.5l-0.2,1.8L43.1,80.8z M48.2,84.5v0.4l-2.6,0.2v-0.4l1.2-0.2
	H47L48.2,84.5z M47.4,85L46.5,85c-0.1-1-0.1-1.9-0.2-2.9l-0.1-0.7c-0.1-0.8-0.2-1.7-0.3-2.7l0.9-0.1c0.1,1,0.1,1.9,0.2,2.9v0.5
	C47.2,83.1,47.3,84,47.4,85L47.4,85z M46.5,79.3l-0.1-0.5l1.3-0.1l0,0.4L46.5,79.3L46.5,79.3z"/>
<path class="st1" d="M42.1,84.9v0.4l-2.6-0.1v-0.4l1.2-0.1h0.2L42.1,84.9z M40.9,79.5l-1.2-0.2v-0.4l2.6,0.1v0.4l-1.2,0.1L40.9,79.5
	z M41.3,82.3c0,1-0.1,1.9-0.1,2.9h-0.9c0.1-0.9,0.1-1.9,0.2-2.9v-0.5c0-1,0.1-1.9,0.1-2.9l0.9,0c-0.1,0.9-0.1,1.9-0.2,2.9L41.3,82.3
	z"/>
<path class="st1" d="M33,80.9c0.4-2,2-2.9,3.4-2.6c1.4,0.3,2.6,1.7,2.2,3.8c-0.2,1.6-1.7,2.8-3.3,2.7c0,0-0.1,0-0.1,0
	C33.7,84.4,32.6,83,33,80.9z M36.3,78.8c-1.3-0.3-2.1,1-2.4,2.4c-0.3,1.4,0,2.8,1.3,3.1c1.3,0.3,2.1-1,2.4-2.4
	C37.9,80.5,37.6,79,36.3,78.8z"/>
<path class="st2" d="M16.6,35.9c6.6-14.5,23.7-20.8,38.1-14.2s20.8,23.7,14.2,38.1c-6.3,13.8-22.2,20.3-36.3,15"/>
<path class="st3" d="M24.9,31.9v-2.8h17.9v2.8l-7.6,0.9h-1.9L24.9,31.9z M40.3,55.5L27.4,29.1h8.8l10,22l-1.9,0.1l10.3-22.2h3.5
	L45.3,55.5H40.3z M43.9,64.8l8.6,0.9v2.8H33.5v-2.8l8.5-0.9H43.9z M39.2,50.4h7.7c0,7.9,0,12.7,0.2,18.1H39
	C39.2,63.3,39.2,58.4,39.2,50.4z M54.3,32.9l-6.1-0.9v-2.8h13v2.8l-5.6,0.9L54.3,32.9z"/>
</svg>
