<?xml version="1.0" encoding="utf-8"?>
<!-- Generator: Adobe Illustrator 25.4.1, SVG Export Plug-In . SVG Version: 6.00 Build 0)  -->
<svg version="1.1" id="Layer_1" xmlns="http://www.w3.org/2000/svg" xmlns:xlink="http://www.w3.org/1999/xlink" x="0px" y="0px"
	 viewBox="0 0 169.5 179.2" style="enable-background:new 0 0 169.5 179.2;" xml:space="preserve">
<style type="text/css">
	.st0{fill:#FFFFFF;}
</style>
<path class="st0" d="M43.4,67.8l-1,1.1l-0.4-0.3l1.7-2.5l0.4,0.3l-0.6,1.2L43.4,67.8z M44.9,64.3l0.3-0.3l6.4,1.9L51.4,66l-4.2-4.9
	l0.4-0.5l5.1,6L52.5,67L46,65.2l0.3-0.3l4.2,5.3l-0.3,0.4l-7.4-2.5l0.6-0.8l6.1,2.2l-0.1,0.3L44.9,64.3z M45.6,64.5l-1,1.1l-0.4-0.2
	l1.7-2.5l0.4,0.3l-0.6,1.2L45.6,64.5z M47.7,61.4l-0.8,1l-0.4-0.3l1.5-2.2l0.4,0.3l-0.6,1.1V61.4z"/>
<path class="st0" d="M49.7,58.9l-0.3-0.4l1.1-1.1l0.5,0.5L51,58.1L49.7,58.9z M52.6,60.3c-0.8-0.8-1.6-1.7-2.4-2.5l0.8-0.7
	c0.7,0.8,1.6,1.7,2.3,2.5l0.3,0.4c0.8,1,1.7,1.8,2.5,2.6l-0.8,0.7c-0.7-0.8-1.5-1.7-2.3-2.5L52.6,60.3z M53,55.4l0.7,0.1L51,58
	l-0.4-0.4l2.9-2.7l1.5,1.5l-0.5,0.5L53,55.4z M55.2,58.7l-1.8,1.7L53,60l1.8-1.7L55.2,58.7z M54.6,58.5l-0.7-1l0.4-0.4l1.8,1.9
	l-0.4,0.4l-1-0.8L54.6,58.5z M55.3,62.5l0.5,0.5l-1.2,1.1l-0.4-0.4C54.3,63.7,55.3,62.5,55.3,62.5z M57.5,58.5l1.3,1.5l-3.1,2.9
	l-0.4-0.4l2.7-2.6v0.7L57,59L57.5,58.5z"/>
<path class="st0" d="M55.7,53.7l-0.3-0.4l2.7-1.7l0.3,0.4l-1.2,1L56.9,53L55.7,53.7z M56.3,52.7l1-0.6L59,55l0.5,0.6
	c0.5,0.8,1.2,1.8,1.8,2.7l-1,0.6l-1.8-2.9l-0.4-0.5C57.7,54.5,56.9,53.6,56.3,52.7L56.3,52.7z M60.6,58.2l0.4,0.5l-1.3,0.8l-0.3-0.4
	l1.1-1H60.6z M63.2,54.7l1.1,1.8l-3.4,2.2l-0.4-0.5l3.1-1.9l-0.3,0.8l-0.7-2L63.2,54.7z"/>
<path class="st0" d="M69.8,52.9l0.3,0.6l-0.6,0.4L69,52.2l0.6-0.3l0.6,1.5c-0.5,0.6-1.1,1.1-1.9,1.3c-1.8,0.8-4,0.1-4.9-1.8
	c0-0.1-0.1-0.3-0.1-0.4c-0.9-1.8-0.1-4.1,1.7-5c0.1,0,0.1,0,0.3-0.1c0.6-0.3,1.4-0.4,2.2-0.4l0.7,1.5l-0.6,0.3l-1-1.5l0.7-0.1
	l0.3,0.6c-0.6-0.3-1.3-0.3-1.9,0c-1.5,0.6-2,2.2-1.2,4.2c0.8,2,2.3,2.6,3.7,2C68.9,54.1,69.4,53.5,69.8,52.9z"/>
<path class="st0" d="M77.2,48.5c0.5,2.4-0.8,4.2-2.5,4.5c-1.7,0.3-3.6-0.6-4.1-3.1c-0.6-1.8,0.4-3.7,2.2-4.4c0.1,0,0.1,0,0.1-0.1
	h0.1C74.8,45,76.7,46,77.2,48.5z M74.5,52.4c1.5-0.4,1.8-2,1.5-3.7c-0.3-1.7-1.3-3.1-2.9-2.9c-1.6,0.3-1.9,2-1.6,3.7
	C72,51.2,73,52.8,74.5,52.4z"/>
<path class="st0" d="M78.5,51.5l1.2-0.1h0.3l1.1,0.3v0.5h-2.5V51.5z M78.7,44.5h1.5v0.6h-0.1l-1.3-0.3
	C78.7,44.8,78.7,44.5,78.7,44.5z M79.7,44.5h0.5v3.4l-0.1,4.2h-0.5L79.7,44.5z M79.7,44.5h1l2.7,6.8h-0.4l2.8-6.5h0.6l-3.1,7.4h-0.6
	L79.7,44.5z M84.6,51.6l1.3-0.1h0.3l1.5,0.3v0.5l-3.1-0.1V51.6z M85.7,48.6l0.1-4.1h1c0,1.2-0.1,2.4-0.1,3.6v4.1h-1.1
	C85.7,51,85.7,49.8,85.7,48.6z M86.3,44.6h1.5v0.5l-1.5,0.1h-0.1L86.3,44.6z"/>
<path class="st0" d="M90.1,52.2L90,52.8l-1.6-0.4l0.1-0.5C88.6,51.9,90.1,52.2,90.1,52.2z M90.5,48.8c0.3-1.1,0.6-2.3,0.8-3.4
	l1.1,0.3c-0.3,1.1-0.6,2.2-0.8,3.4l-0.1,0.4c-0.4,1.2-0.6,2.4-0.8,3.5l-1.1-0.3c0.4-1.1,0.6-2.2,0.8-3.4L90.5,48.8z M94.5,51.9
	L94,53.8l-4-1l0.1-0.6l3.7,1l-0.6,0.5L94,52L94.5,51.9z M90.1,45.6l0.1-0.5l1.6,0.4L91.7,46h-0.1L90.1,45.6z M93.2,49.9l-2.4-0.6
	l0.1-0.5l2.4,0.6L93.2,49.9z M94.8,46.3l0.4,0.7l-3.5-0.8l0.1-0.6l3.8,1l-0.4,1.9l-0.6-0.1L94.8,46.3z M93,49.5l0.5-1.1l0.5,0.1
	L93.5,51L93,50.9l0.1-1.2L93,49.5z"/>
<path class="st0" d="M93.7,56.5v-0.4c1,0,1.9-0.5,2.4-1.3L96,55.2l-0.4-0.6c-0.1-0.3-0.2-0.6-0.1-0.8c0.1-0.3,0.5-0.5,0.8-0.5h0.1
	c0.3,0.1,0.4,0.3,0.5,0.6c-0.1,0.3-0.1,0.6-0.3,0.8C96.1,55.8,95,56.5,93.7,56.5z"/>
<path class="st0" d="M103.2,57.7l1.2,1l-0.3,0.4l-2.7-1.8l0.3-0.4l1.5,0.7L103.2,57.7z M104.1,55l0.8,0.6c-0.7,1.1-1.3,1.9-1.8,2.7
	l-0.8-0.6C102.9,57,103.4,56.1,104.1,55L104.1,55z M103.6,50.3l0.3-0.4l2.7,1.7l-0.3,0.4l-1.3-0.6l-0.1-0.1L103.6,50.3z M103.8,55.7
	l0.7-5.5l1,0.6l-0.7,4.8l-0.4-0.1l4.2-2.5l0.5,0.4l-4.7,2.7L103.8,55.7z M108.2,53.5l-1-0.8l0.3-0.4l2.2,1.5l-0.3,0.4l-1.1-0.5
	L108.2,53.5z"/>
<path class="st0" d="M113.1,61.9c-1.2,1.5-3.5,1.8-5,0.6c-0.1,0-0.1-0.1-0.1-0.1l0,0c-1.3-1.2-1.5-3.4,0.3-5.1
	c1.2-1.5,3.5-1.8,5-0.6l0.1,0.1C114.6,57.9,114.8,60.1,113.1,61.9z M108.3,62c1.2,1.1,2.7,0.4,3.9-1c1.2-1.2,1.8-2.9,0.7-3.9
	c-1.2-1.1-2.7-0.4-3.9,0.8C107.8,59.1,107.1,61,108.3,62z"/>
<path class="st0" d="M118.2,69c-1.5,1.3-3.7,1.1-4.9-0.4c-0.1-0.1-0.1-0.1-0.1-0.1l-0.1-0.1c-1-1.5-0.8-3.6,1.3-5
	c1.5-1.3,3.8-1.1,5.1,0.4c0,0,0,0,0,0.1v0.1C120.4,65.2,120.2,67.5,118.2,69z M113.5,68c1,1.3,2.7,0.8,4.1-0.1
	c1.5-1,2.4-2.4,1.5-3.7c-1-1.3-2.6-0.8-4.1,0.1C113.6,65.2,112.5,66.7,113.5,68L113.5,68z"/>
<path class="st0" d="M115.8,71.4l0.6,1l0.1,0.3l0.4,1.2l-0.4,0.1l-1.1-2.5H115.8z M122.6,69.4l-0.3,0.8l-6.5,2.8l-0.3-0.5
	L122.6,69.4z M122.3,69.4v0.8l-0.4-1.3l0.4-0.3l0.6,1.5l-4.1,6.7l-1.1,0.5l-0.1-0.4L122.3,69.4z M124.5,74l0.3,0.5l-6.9,3.1l0.3-0.7
	L124.5,74z M124.2,72.9l1.1,2.5l-0.5,0.1l-0.6-1l-0.1-0.1l-0.4-1.3L124.2,72.9z"/>
<path class="st0" d="M120.9,82.4c0.7-0.1,1-0.6,1.1-1.7l0.1-0.5c0.3-1.2,0.6-2.2,1.8-2.4c1.2-0.3,2.3,0.6,2.5,2
	c0.1,0.6,0.1,1.3-0.1,1.9l-1.5,0.3l-0.1-0.6l1.6-0.7l-0.3,0.7l-0.6,0.1c0.4-0.5,0.5-1.1,0.4-1.7c-0.3-0.8-0.7-1.5-1.5-1.2
	c-0.8,0.3-1,0.7-1.1,1.6l-0.1,0.5c-0.3,1.5-0.7,2.3-1.8,2.5c-1.3,0.3-2.3-0.6-2.7-2.2c-0.1-0.8-0.1-1.5,0.1-2.3l1.5-0.3l0.1,0.6
	l-1.7,0.7l0.1-0.7l0.5-0.1c-0.3,0.6-0.5,1.3-0.4,1.9C119.5,82.1,120.1,82.6,120.9,82.4z"/>
<path class="st0" d="M120.3,86h-0.6l-0.1-1.5h0.4L120.3,86z M123.7,85.2c1.2-0.1,2.3-0.1,3.5-0.3l0.1,1.1c-1.1,0-2.3,0.1-3.5,0.3
	h-0.5c-1.3,0.1-2.4,0.1-3.6,0.3l-0.1-1.1c1.1,0,2.3-0.1,3.5-0.1L123.7,85.2z M121.9,90.2H120l-0.3-4.2h0.6l0.3,3.8l-0.6-0.5l2,0.3
	L121.9,90.2z M123.8,87.9L125,88v0.5l-2.7,0.1v-0.5l1.2-0.3L123.8,87.9z M123.5,88.3l-0.1-2.5h0.5l0.1,2.5H123.5z M127.3,88.6
	l-0.5,0.5l-0.3-3.6h0.6l0.3,3.9l-2,0.3v-0.6L127.3,88.6z M126.6,84h0.5l0.1,1.5h-0.6L126.6,84L126.6,84z"/>
<path class="st0" d="M122.8,98.3c-2.4-0.4-3.7-2.2-3.5-3.8c0.3-1.7,1.8-3.2,4.3-2.9c2,0.1,3.5,1.7,3.5,3.7v0.1
	C126.9,97.1,125.4,98.6,122.8,98.3z M120,94.5c-0.3,1.6,1.5,2.4,3.1,2.7c1.7,0.3,3.4-0.3,3.6-1.8c0.3-1.5-1.5-2.4-3-2.7
	C121.9,92.5,120.1,92.9,120,94.5L120,94.5z"/>
<path class="st0" d="M118.1,103.1l-0.7,1.3l-0.4-0.1l1.2-2.9l0.4,0.1l-0.4,1.5L118.1,103.1z M121.4,103.9c1.1,0.5,2.2,0.8,3.2,1.3
	l-0.4,1c-1.1-0.5-2.2-1-3.2-1.3l-0.6-0.4c-1.1-0.5-2-0.8-3.1-1.2l0.4-1c1.1,0.5,2.2,1,3.2,1.3L121.4,103.9z M119.8,104.9l0.5-1.1
	l0.5,0.3l-0.5,1.2c-0.4,0.8-0.3,1.8,0.5,2.2l0.1,0.1c0.1,0.1,0.3,0.1,0.4,0.1c1,0.4,1.8,0.1,2.3-1.2l0.5-1.2l0.5,0.3l-0.6,1.3
	c-0.7,1.7-1.9,2.3-3.1,1.8C119.7,108.2,119,107,119.8,104.9L119.8,104.9z M124.6,104l0.4,0.1l-0.6,1.5l-0.6-0.3v-0.2L124.6,104z"/>
<path class="st0" d="M115.1,115c-2-1.3-2.4-3.5-1.5-5c1-1.5,3-2.2,5.1-0.7c1.7,1,2.4,3.1,1.5,4.8l-0.1,0.1v0.1
	C119.3,115.7,117.2,116.4,115.1,115z M114.1,110.3c-0.8,1.3,0.3,2.7,1.6,3.7s3.1,1.3,4.1,0s-0.3-2.7-1.5-3.7
	C116.7,109.4,114.9,109,114.1,110.3z"/>
<path class="st0" d="M113.2,117.4l-1,1c-0.7,0.4-0.9,1.4-0.4,2.1c0,0,0,0.1,0.1,0.1c0,0.1,0.1,0.1,0.3,0.3c0.7,0.6,1.5,0.6,2.2-0.3
	l1.1-1.1l0.4,0.4l-1.1,1.1c-1.2,1.2-2.4,1.5-3.2,0.6c-0.7-0.7-0.8-1.8,0.1-2.9v0.1c-0.6,0.6-1.5,0.6-2.2,0.1l-1.7-1.1l0.4-0.1
	l-0.8,0.8l-0.4-0.4c0.1-0.3,0.3-0.5,0.5-0.7c0.5-0.5,0.8-0.6,1.3-0.4l1.7,1c0.8,0.5,1.2,0.3,1.8-0.4l0.7-0.7L113.2,117.4z
	 M110.8,115.1l-1.1,1l-0.4-0.4l2.2-2.3l0.4,0.4L111,115L110.8,115.1z M113.6,117c0.8,0.8,1.7,1.5,2.5,2.4l-0.7,0.7l-2.5-2.5
	l-0.3-0.3c-1-0.8-1.8-1.7-2.7-2.5l0.7-0.7c0.8,0.8,1.7,1.6,2.5,2.4L113.6,117z M116.5,118.3l0.4,0.4l-1.1,1.2l-0.5-0.5l0.1-0.1
	L116.5,118.3z"/>
<path class="st0" d="M104.6,120.6l-1.3,0.8l-0.3-0.4l2.7-1.9l0.3,0.4l-1.2,1.1H104.6z M107.1,123c0.7,1,1.3,1.9,2,2.7l-0.8,0.6
	c-0.6-1-1.3-1.9-2-2.7l-0.4-0.5c-0.7-1-1.3-1.9-2-2.7l0.8-0.6c0.6,1,1.3,1.9,2,2.7L107.1,123z M110.6,124.1l-0.1,0.7l-0.8-1.8
	l0.5-0.4l1.1,1.7l-4.9,3.6l-1.2-1.5l0.5-0.4l1.5,1.5l-0.7-0.3L110.6,124.1z"/>
<path class="st0" d="M99.6,127.4l0.4,1.1l-0.4,0.3l-1.2-2.5l0.5-0.3l0.7,1.1V127.4z M100.1,123.5l-1.3,0.5l-0.3-0.4l2.7-1.5l0.3,0.4
	l-1.2,0.8L100.1,123.5z M100.5,130.9l-0.7-0.3l3.2-1.5l0.3,0.5l-3.6,1.8l-1-1.8l0.6-0.3L100.5,130.9z M99.1,127.2l2.4-1.2l0.3,0.5
	l-2.4,1.2L99.1,127.2z M102.1,126.2c0.5,1.1,1.1,2,1.5,3.1l-1,0.5c-0.5-1.1-1-2-1.6-3.1l-0.3-0.4c-0.6-1.2-1.1-2.2-1.7-3.2l1-0.5
	c0.5,1.1,1,2,1.5,3.1L102.1,126.2z M104.4,128.5l0.3,0.4l-1.5,0.7l-0.3-0.6h0.1L104.4,128.5z"/>
<path class="st0" d="M90.1,130.3c-0.7-1.8,0.2-3.9,2.1-4.6h0.1h0.1c1.7-0.5,3.7,0.4,4.3,2.9c0.7,1.8-0.2,3.9-2.1,4.6h-0.1h-0.1
	C92.8,133.7,90.7,132.8,90.1,130.3z M92.5,126.2c-1.5,0.5-1.7,2.2-1.2,3.8c0.5,1.7,1.6,3.1,3.1,2.7s1.7-2.2,1.3-3.8
	C95.3,127.2,94,125.8,92.5,126.2L92.5,126.2z"/>
<path class="st0" d="M82.9,129.3l-0.1-2l3.9-0.4v0.6l-3.5,0.4l0.6-0.6l-0.3,2.2L82.9,129.3z M89,133.8v0.5l-3.1,0.3V134l1.5-0.3H89
	L89,133.8z M88.1,134.4H87c-0.1-1.2-0.1-2.3-0.3-3.5l-0.1-0.8c-0.1-1-0.3-2-0.4-3.2l1.1-0.1c0.1,1.2,0.1,2.3,0.3,3.5v0.6
	C87.8,132.1,87.9,133.2,88.1,134.4L88.1,134.4z M87,127.6l-0.1-0.6l1.5-0.1v0.5L87,127.6L87,127.6z"/>
<path class="st0" d="M81.7,134.3v0.5l-3.1-0.1v-0.5l1.5-0.1h0.3L81.7,134.3z M80.3,127.8l-1.5-0.3V127l3.1,0.1v0.5l-1.5,0.1H80.3z
	 M80.8,131.2c0,1.2-0.1,2.3-0.1,3.5h-1.1c0.1-1.1,0.1-2.3,0.3-3.5v-0.6c0-1.2,0.1-2.3,0.1-3.5h1.1c-0.1,1.1-0.1,2.3-0.3,3.5V131.2z"
	/>
<path class="st0" d="M70.8,129.5c0.5-2.4,2.4-3.5,4.1-3.1c1.7,0.4,3.1,2,2.7,4.5c-0.3,2-2,3.4-3.9,3.2h-0.2
	C71.7,133.7,70.3,132,70.8,129.5z M74.8,127c-1.5-0.4-2.5,1.2-2.9,2.9s0,3.4,1.6,3.7c1.6,0.4,2.5-1.2,2.9-2.9
	C76.7,129,76.3,127.2,74.8,127L74.8,127z"/>
</svg>
